<svg width="35" height="36" viewBox="0 0 35 36" fill="none" xmlns="http://www.w3.org/2000/svg">
<path d="M34.9208 17.2362L32.4473 13.4942L32.7207 9.01669C32.7267 8.92289 32.7048 8.82941 32.658 8.74794C32.6111 8.66648 32.5412 8.60065 32.4571 8.55868L28.4403 6.55985L26.4415 2.54305C26.3992 2.45923 26.3333 2.38955 26.252 2.34254C26.1708 2.29553 26.0775 2.27323 25.9838 2.27837L21.5062 2.5518L17.764 0.0793817C17.6857 0.0276067 17.5939 0 17.5001 0C17.4062 0 17.3145 0.0276067 17.2362 0.0793817L13.4945 2.55317L9.01669 2.27973C8.92284 2.27327 8.82919 2.29486 8.74764 2.34174C8.66609 2.38863 8.60031 2.4587 8.55868 2.54305L6.56067 6.5604L2.54305 8.55868C2.45889 8.60049 2.38892 8.66619 2.34189 8.74755C2.29486 8.82892 2.27286 8.92234 2.27864 9.01614L2.55208 13.4937L0.0793817 17.2362C0.0276067 17.3145 0 17.4063 0 17.5001C0 17.5939 0.0276067 17.6857 0.0793817 17.764L2.5529 21.506L2.27946 25.9835C2.2735 26.0773 2.29532 26.1708 2.3422 26.2522C2.38909 26.3337 2.45895 26.3995 2.54305 26.4415L6.55985 28.4403L8.55868 32.4571C8.60072 32.5412 8.6665 32.6111 8.74786 32.6581C8.82922 32.7052 8.92259 32.7273 9.01641 32.7218L13.494 32.4484L17.2359 34.9222C17.3142 34.9739 17.406 35.0014 17.4998 35.0014C17.5936 35.0014 17.6854 34.9739 17.7637 34.9222L21.5054 32.4484L25.9832 32.7218C26.077 32.7267 26.1702 32.7043 26.2515 32.6573C26.3329 32.6103 26.3988 32.5408 26.4415 32.4571L28.4398 28.4406L32.4571 26.4415C32.5413 26.3997 32.6113 26.334 32.6583 26.2526C32.7053 26.1713 32.7273 26.0778 32.7215 25.984L32.4481 21.5065L34.9216 17.7645C34.9734 17.6861 35.0009 17.5942 35.0008 17.5002C35.0006 17.4063 34.9728 17.3145 34.9208 17.2362ZM31.5605 21.1117C31.5033 21.1982 31.4758 21.301 31.4823 21.4045L31.7462 25.7248L27.8694 27.6539C27.7761 27.7002 27.7005 27.7758 27.6542 27.8691L25.7256 31.7462L21.4053 31.4818C21.3018 31.4753 21.1989 31.5029 21.1125 31.5603L17.5001 33.9479L13.8885 31.5605C13.8103 31.5088 13.7185 31.4812 13.6247 31.4812H13.5954L9.27508 31.7454L7.34653 27.8688C7.30016 27.7756 7.2246 27.7 7.13133 27.6537L3.25399 25.7254L3.51786 21.4051C3.52437 21.3015 3.49692 21.1987 3.43966 21.1122L1.05227 17.5001L3.43966 13.8885C3.49692 13.802 3.52437 13.6992 3.51786 13.5957L3.25399 9.27536L7.13079 7.34626C7.22411 7.29997 7.2997 7.22439 7.34598 7.13106L9.27454 3.25399L13.5948 3.51841C13.6984 3.5244 13.8011 3.49689 13.8877 3.43993L17.5001 1.05227L21.1116 3.43966C21.1983 3.49672 21.3012 3.52425 21.4048 3.51813L25.7251 3.25399L27.6536 7.13052C27.7 7.22378 27.7756 7.29934 27.8688 7.34571L31.7462 9.27481L31.4823 13.5951C31.4758 13.6987 31.5033 13.8015 31.5605 13.888L33.9479 17.5001L31.5605 21.1117Z" fill="#014561"/>
</svg>
