<svg width="151" height="17" viewBox="0 0 151 17" fill="none" xmlns="http://www.w3.org/2000/svg">
<path d="M15.7904 15.712C15.8224 15.712 15.8384 15.76 15.8384 15.856C15.8384 15.952 15.8224 16 15.7904 16H12.6944C12.2944 16 11.5424 15.32 10.4384 13.96C9.35044 12.584 8.02244 10.672 6.45444 8.224C6.07044 8.336 5.63844 8.392 5.15844 8.392C4.85444 8.392 4.49444 8.376 4.07844 8.344V14.056C4.07844 14.552 4.12644 14.912 4.22244 15.136C4.31844 15.36 4.50244 15.512 4.77444 15.592C5.06244 15.672 5.51044 15.712 6.11844 15.712C6.16644 15.712 6.19044 15.76 6.19044 15.856C6.19044 15.952 6.16644 16 6.11844 16C5.62244 16 5.23044 15.992 4.94244 15.976L3.28644 15.952L1.65444 15.976C1.36644 15.992 0.958438 16 0.430438 16C0.398438 16 0.382438 15.952 0.382438 15.856C0.382438 15.76 0.398438 15.712 0.430438 15.712C1.03844 15.712 1.48644 15.672 1.77444 15.592C2.06244 15.496 2.26244 15.336 2.37444 15.112C2.48644 14.888 2.54244 14.536 2.54244 14.056V2.944C2.54244 2.464 2.48644 2.112 2.37444 1.888C2.27844 1.664 2.08644 1.512 1.79844 1.432C1.52644 1.336 1.08644 1.288 0.478438 1.288C0.430438 1.288 0.406438 1.24 0.406438 1.144C0.406438 1.048 0.430438 1 0.478438 1L1.65444 1.024C2.32644 1.056 2.87044 1.072 3.28644 1.072C3.57444 1.072 3.84644 1.064 4.10244 1.048C4.35844 1.032 4.58244 1.016 4.77444 1C5.28644 0.952 5.75044 0.927999 6.16644 0.927999C7.46244 0.927999 8.46244 1.192 9.16644 1.72C9.87044 2.248 10.2224 2.984 10.2224 3.928C10.2224 4.696 9.99844 5.424 9.55044 6.112C9.10244 6.784 8.51044 7.32 7.77444 7.72C9.13444 9.752 10.2784 11.344 11.2064 12.496C12.1344 13.632 12.9584 14.456 13.6784 14.968C14.3984 15.464 15.1024 15.712 15.7904 15.712ZM4.07844 7.744C4.47844 7.808 4.95044 7.84 5.49444 7.84C6.59844 7.84 7.39044 7.608 7.87044 7.144C8.35044 6.664 8.59044 5.872 8.59044 4.768C8.59044 2.448 7.61444 1.288 5.66244 1.288C5.23044 1.288 4.90244 1.328 4.67844 1.408C4.47044 1.472 4.31844 1.624 4.22244 1.864C4.12644 2.088 4.07844 2.464 4.07844 2.992V7.744ZM32.3229 15.712C32.3869 15.712 32.4189 15.76 32.4189 15.856C32.4189 15.952 32.3869 16 32.3229 16C32.0189 16 31.5469 15.984 30.9069 15.952C30.2669 15.92 29.8029 15.904 29.5149 15.904C29.1629 15.904 28.7149 15.92 28.1709 15.952C27.6589 15.984 27.2669 16 26.9949 16C26.9309 16 26.8989 15.952 26.8989 15.856C26.8989 15.76 26.9309 15.712 26.9949 15.712C27.5869 15.712 28.0189 15.656 28.2909 15.544C28.5629 15.432 28.6989 15.24 28.6989 14.968C28.6989 14.744 28.5949 14.4 28.3869 13.936L25.6269 8.056H21.0909L19.0269 12.952C18.8029 13.496 18.6909 13.944 18.6909 14.296C18.6909 15.24 19.4749 15.712 21.0429 15.712C21.1229 15.712 21.1629 15.76 21.1629 15.856C21.1629 15.952 21.1229 16 21.0429 16C20.7549 16 20.3389 15.984 19.7949 15.952C19.1869 15.92 18.6589 15.904 18.2109 15.904C17.7949 15.904 17.3149 15.92 16.7709 15.952C16.2909 15.984 15.8909 16 15.5709 16C15.4909 16 15.4509 15.952 15.4509 15.856C15.4509 15.76 15.4909 15.712 15.5709 15.712C16.0189 15.712 16.3949 15.632 16.6989 15.472C17.0189 15.296 17.3149 15 17.5869 14.584C17.8749 14.152 18.1869 13.536 18.5229 12.736L23.5869 0.784C23.6189 0.736 23.6749 0.711999 23.7549 0.711999C23.8349 0.711999 23.8829 0.736 23.8989 0.784L29.5629 12.712C30.1069 13.896 30.5709 14.696 30.9549 15.112C31.3389 15.512 31.7949 15.712 32.3229 15.712ZM21.3069 7.552H25.3869L23.2269 2.992L21.3069 7.552ZM45.2827 3.64C45.2827 2.072 44.5867 1.288 43.1947 1.288C43.1467 1.288 43.1227 1.24 43.1227 1.144C43.1227 1.048 43.1467 1 43.1947 1L44.2267 1.024C44.8027 1.056 45.2587 1.072 45.5947 1.072C45.8667 1.072 46.2587 1.056 46.7707 1.024L47.7787 1C47.8107 1 47.8267 1.048 47.8267 1.144C47.8267 1.24 47.8107 1.288 47.7787 1.288C46.4987 1.288 45.8587 2.072 45.8587 3.64V10.456C45.8587 12.296 45.3467 13.736 44.3227 14.776C43.2987 15.8 41.9227 16.312 40.1947 16.312C39.0107 16.312 37.9707 16.08 37.0747 15.616C36.1947 15.152 35.5067 14.496 35.0107 13.648C34.5307 12.784 34.2907 11.776 34.2907 10.624V2.944C34.2907 2.464 34.2427 2.112 34.1467 1.888C34.0507 1.664 33.8587 1.512 33.5707 1.432C33.2987 1.336 32.8587 1.288 32.2507 1.288C32.2187 1.288 32.2027 1.24 32.2027 1.144C32.2027 1.048 32.2187 1 32.2507 1L33.4267 1.024C34.0987 1.056 34.6427 1.072 35.0587 1.072C35.5067 1.072 36.0667 1.056 36.7387 1.024L37.8907 1C37.9387 1 37.9627 1.048 37.9627 1.144C37.9627 1.24 37.9387 1.288 37.8907 1.288C37.2987 1.288 36.8587 1.336 36.5707 1.432C36.2827 1.528 36.0907 1.696 35.9947 1.936C35.8987 2.16 35.8507 2.512 35.8507 2.992V9.784C35.8507 11.656 36.2747 13.096 37.1227 14.104C37.9867 15.096 39.1867 15.592 40.7227 15.592C42.1627 15.592 43.2827 15.144 44.0827 14.248C44.8827 13.336 45.2827 12.08 45.2827 10.48V3.64ZM52.7525 13.96C52.7525 14.424 52.8005 14.76 52.8965 14.968C52.9925 15.176 53.1685 15.32 53.4245 15.4C53.6805 15.464 54.0965 15.496 54.6725 15.496H57.2885C58.2005 15.496 58.9285 15.216 59.4725 14.656C60.0165 14.096 60.3765 13.32 60.5525 12.328C60.5525 12.28 60.5925 12.264 60.6725 12.28C60.7685 12.28 60.8165 12.304 60.8165 12.352C60.6725 13.68 60.6005 14.776 60.6005 15.64C60.6005 15.768 60.5765 15.864 60.5285 15.928C60.4805 15.976 60.3845 16 60.2405 16H49.1525C49.1205 16 49.1045 15.952 49.1045 15.856C49.1045 15.76 49.1205 15.712 49.1525 15.712C49.7605 15.712 50.2005 15.672 50.4725 15.592C50.7605 15.512 50.9525 15.36 51.0485 15.136C51.1445 14.896 51.1925 14.536 51.1925 14.056V2.944C51.1925 2.464 51.1445 2.112 51.0485 1.888C50.9525 1.664 50.7605 1.512 50.4725 1.432C50.2005 1.336 49.7605 1.288 49.1525 1.288C49.1205 1.288 49.1045 1.24 49.1045 1.144C49.1045 1.048 49.1205 1 49.1525 1L50.3285 1.024C51.0005 1.056 51.5445 1.072 51.9605 1.072C52.4085 1.072 52.9685 1.056 53.6405 1.024L54.7925 1C54.8405 1 54.8645 1.048 54.8645 1.144C54.8645 1.24 54.8405 1.288 54.7925 1.288C54.2005 1.288 53.7605 1.336 53.4725 1.432C53.2005 1.512 53.0085 1.672 52.8965 1.912C52.8005 2.136 52.7525 2.488 52.7525 2.968V13.96ZM74.0064 16.096C73.5424 16.096 73.0064 16.072 72.3984 16.024C72.1744 16.008 71.8864 15.992 71.5344 15.976C71.1984 15.96 70.8224 15.952 70.4064 15.952L68.7744 15.976C68.4864 15.992 68.0864 16 67.5744 16C67.5424 16 67.5264 15.952 67.5264 15.856C67.5264 15.76 67.5424 15.712 67.5744 15.712C68.1824 15.712 68.6224 15.672 68.8944 15.592C69.1824 15.512 69.3744 15.36 69.4704 15.136C69.5824 14.896 69.6384 14.536 69.6384 14.056V2.944C69.6384 2.464 69.5904 2.112 69.4944 1.888C69.3984 1.664 69.2064 1.512 68.9184 1.432C68.6464 1.336 68.2064 1.288 67.5984 1.288C67.5664 1.288 67.5504 1.24 67.5504 1.144C67.5504 1.048 67.5664 1 67.5984 1L68.7984 1.024C69.4704 1.056 70.0064 1.072 70.4064 1.072C71.0144 1.072 71.6144 1.048 72.2064 1C72.9104 0.967999 73.3984 0.951999 73.6704 0.951999C75.3344 0.951999 76.8064 1.272 78.0864 1.912C79.3664 2.552 80.3584 3.424 81.0624 4.528C81.7824 5.632 82.1424 6.872 82.1424 8.248C82.1424 9.8 81.7744 11.176 81.0384 12.376C80.3184 13.56 79.3344 14.48 78.0864 15.136C76.8384 15.776 75.4784 16.096 74.0064 16.096ZM73.7664 15.736C75.0464 15.736 76.1824 15.472 77.1744 14.944C78.1664 14.4 78.9344 13.608 79.4784 12.568C80.0384 11.512 80.3184 10.248 80.3184 8.776C80.3184 7.384 80.0544 6.12 79.5264 4.984C78.9984 3.848 78.2464 2.952 77.2704 2.296C76.2944 1.64 75.1664 1.312 73.8864 1.312C73.1984 1.312 72.6624 1.352 72.2784 1.432C71.9104 1.512 71.6384 1.672 71.4624 1.912C71.2864 2.152 71.1984 2.512 71.1984 2.992V13.792C71.1984 14.272 71.2624 14.648 71.3904 14.92C71.5344 15.192 71.7904 15.4 72.1584 15.544C72.5424 15.672 73.0784 15.736 73.7664 15.736ZM97.0561 3.64C97.0561 2.072 96.3601 1.288 94.9681 1.288C94.9201 1.288 94.8961 1.24 94.8961 1.144C94.8961 1.048 94.9201 1 94.9681 1L96.0001 1.024C96.5761 1.056 97.0321 1.072 97.3681 1.072C97.6401 1.072 98.0321 1.056 98.5441 1.024L99.5521 1C99.5841 1 99.6001 1.048 99.6001 1.144C99.6001 1.24 99.5841 1.288 99.5521 1.288C98.2721 1.288 97.6321 2.072 97.6321 3.64V10.456C97.6321 12.296 97.1201 13.736 96.0961 14.776C95.0721 15.8 93.6961 16.312 91.9681 16.312C90.7841 16.312 89.7441 16.08 88.8481 15.616C87.9681 15.152 87.2801 14.496 86.7841 13.648C86.3041 12.784 86.0641 11.776 86.0641 10.624V2.944C86.0641 2.464 86.0161 2.112 85.9201 1.888C85.8241 1.664 85.6321 1.512 85.3441 1.432C85.0721 1.336 84.6321 1.288 84.0241 1.288C83.9921 1.288 83.9761 1.24 83.9761 1.144C83.9761 1.048 83.9921 1 84.0241 1L85.2001 1.024C85.8721 1.056 86.4161 1.072 86.8321 1.072C87.2801 1.072 87.8401 1.056 88.5121 1.024L89.6641 1C89.7121 1 89.7361 1.048 89.7361 1.144C89.7361 1.24 89.7121 1.288 89.6641 1.288C89.0721 1.288 88.6321 1.336 88.3441 1.432C88.0561 1.528 87.8641 1.696 87.7681 1.936C87.6721 2.16 87.6241 2.512 87.6241 2.992V9.784C87.6241 11.656 88.0481 13.096 88.8961 14.104C89.7601 15.096 90.9601 15.592 92.4961 15.592C93.9361 15.592 95.0561 15.144 95.8561 14.248C96.6561 13.336 97.0561 12.08 97.0561 10.48V3.64ZM108.054 7.552C109.318 7.648 110.334 8.072 111.102 8.824C111.886 9.56 112.278 10.48 112.278 11.584C112.278 12.432 112.07 13.2 111.654 13.888C111.238 14.576 110.662 15.12 109.926 15.52C109.206 15.904 108.398 16.096 107.502 16.096C106.974 16.096 106.398 16.072 105.774 16.024C105.55 16.008 105.286 15.992 104.982 15.976C104.678 15.96 104.342 15.952 103.974 15.952L102.342 15.976C102.054 15.992 101.646 16 101.118 16C101.086 16 101.07 15.952 101.07 15.856C101.07 15.76 101.086 15.712 101.118 15.712C101.726 15.712 102.174 15.672 102.462 15.592C102.75 15.496 102.95 15.336 103.062 15.112C103.174 14.888 103.23 14.536 103.23 14.056V2.944C103.23 2.464 103.174 2.112 103.062 1.888C102.966 1.664 102.774 1.512 102.486 1.432C102.198 1.336 101.758 1.288 101.166 1.288C101.118 1.288 101.094 1.24 101.094 1.144C101.094 1.048 101.118 1 101.166 1L102.342 1.024C103.014 1.056 103.558 1.072 103.974 1.072C104.262 1.072 104.526 1.064 104.766 1.048C105.022 1.032 105.238 1.016 105.414 1C105.91 0.952 106.374 0.927999 106.806 0.927999C108.15 0.927999 109.158 1.224 109.83 1.816C110.502 2.392 110.838 3.152 110.838 4.096C110.838 4.864 110.59 5.552 110.094 6.16C109.598 6.752 108.918 7.216 108.054 7.552ZM106.278 1.288C105.862 1.288 105.55 1.32 105.342 1.384C105.15 1.448 105.006 1.6 104.91 1.84C104.814 2.08 104.766 2.464 104.766 2.992V7.552L105.846 7.576C107.014 7.576 107.878 7.28 108.438 6.688C108.998 6.08 109.278 5.28 109.278 4.288C109.278 3.392 109.03 2.672 108.534 2.128C108.054 1.568 107.302 1.288 106.278 1.288ZM107.142 15.664C108.31 15.664 109.174 15.368 109.734 14.776C110.31 14.168 110.598 13.304 110.598 12.184C110.598 10.968 110.238 9.984 109.518 9.232C108.814 8.48 107.838 8.096 106.59 8.08C106.078 8.064 105.47 8.08 104.766 8.128V14.056C104.766 14.472 104.822 14.792 104.934 15.016C105.062 15.24 105.294 15.408 105.63 15.52C105.982 15.616 106.486 15.664 107.142 15.664ZM122.253 16.288C120.765 16.288 119.437 15.944 118.269 15.256C117.117 14.552 116.221 13.608 115.581 12.424C114.957 11.224 114.645 9.92 114.645 8.512C114.645 6.864 115.061 5.456 115.893 4.288C116.725 3.104 117.789 2.216 119.085 1.624C120.397 1.032 121.733 0.735999 123.093 0.735999C124.613 0.735999 125.949 1.096 127.101 1.816C128.253 2.52 129.133 3.456 129.741 4.624C130.365 5.792 130.677 7.032 130.677 8.344C130.677 9.8 130.293 11.136 129.525 12.352C128.757 13.568 127.725 14.528 126.429 15.232C125.149 15.936 123.757 16.288 122.253 16.288ZM123.093 15.784C124.181 15.784 125.157 15.52 126.021 14.992C126.901 14.464 127.589 13.688 128.085 12.664C128.597 11.64 128.853 10.424 128.853 9.016C128.853 7.512 128.573 6.176 128.013 5.008C127.453 3.84 126.661 2.928 125.637 2.272C124.629 1.616 123.445 1.288 122.085 1.288C120.325 1.288 118.949 1.856 117.957 2.992C116.965 4.128 116.469 5.688 116.469 7.672C116.469 9.176 116.749 10.552 117.309 11.8C117.869 13.032 118.653 14.008 119.661 14.728C120.669 15.432 121.813 15.784 123.093 15.784ZM136.62 14.056C136.62 14.536 136.668 14.896 136.764 15.136C136.86 15.36 137.044 15.512 137.316 15.592C137.604 15.672 138.052 15.712 138.66 15.712C138.708 15.712 138.732 15.76 138.732 15.856C138.732 15.952 138.708 16 138.66 16C138.18 16 137.796 15.992 137.508 15.976L135.804 15.952L134.148 15.976C133.86 15.992 133.468 16 132.972 16C132.924 16 132.9 15.952 132.9 15.856C132.9 15.76 132.924 15.712 132.972 15.712C133.58 15.712 134.02 15.672 134.292 15.592C134.58 15.512 134.772 15.36 134.868 15.136C134.98 14.896 135.036 14.536 135.036 14.056V2.944C135.036 2.464 134.98 2.112 134.868 1.888C134.772 1.664 134.58 1.512 134.292 1.432C134.02 1.336 133.58 1.288 132.972 1.288C132.924 1.288 132.9 1.24 132.9 1.144C132.9 1.048 132.924 1 132.972 1L134.148 1.024C134.82 1.056 135.372 1.072 135.804 1.072C136.284 1.072 136.86 1.056 137.532 1.024L138.66 1C138.708 1 138.732 1.048 138.732 1.144C138.732 1.24 138.708 1.288 138.66 1.288C138.068 1.288 137.628 1.336 137.34 1.432C137.068 1.528 136.876 1.696 136.764 1.936C136.668 2.16 136.62 2.512 136.62 2.992V14.056ZM143.293 3.808C143.293 4.432 143.445 4.976 143.749 5.44C144.053 5.904 144.421 6.296 144.853 6.616C145.285 6.92 145.893 7.312 146.677 7.792C147.509 8.288 148.157 8.704 148.621 9.04C149.085 9.376 149.477 9.808 149.797 10.336C150.133 10.848 150.301 11.464 150.301 12.184C150.301 12.952 150.109 13.648 149.725 14.272C149.341 14.896 148.773 15.392 148.021 15.76C147.285 16.112 146.397 16.288 145.357 16.288C144.125 16.288 142.997 16.008 141.973 15.448C141.893 15.4 141.837 15.344 141.805 15.28C141.789 15.216 141.773 15.12 141.757 14.992L141.445 11.728C141.429 11.664 141.461 11.624 141.541 11.608C141.637 11.592 141.693 11.616 141.709 11.68C141.965 12.832 142.437 13.824 143.125 14.656C143.829 15.488 144.757 15.904 145.909 15.904C146.709 15.904 147.381 15.688 147.925 15.256C148.485 14.808 148.765 14.104 148.765 13.144C148.765 12.424 148.605 11.8 148.285 11.272C147.965 10.744 147.573 10.312 147.109 9.976C146.661 9.624 146.045 9.216 145.261 8.752C144.493 8.288 143.885 7.888 143.437 7.552C143.005 7.216 142.637 6.792 142.333 6.28C142.029 5.768 141.877 5.168 141.877 4.48C141.877 3.68 142.085 3 142.501 2.44C142.933 1.864 143.485 1.44 144.157 1.168C144.845 0.879999 145.573 0.735999 146.341 0.735999C147.285 0.735999 148.221 0.927999 149.149 1.312C149.389 1.392 149.509 1.528 149.509 1.72L149.677 4.48C149.677 4.544 149.637 4.576 149.557 4.576C149.477 4.576 149.429 4.544 149.413 4.48C149.285 3.648 148.941 2.88 148.381 2.176C147.821 1.456 147.013 1.096 145.957 1.096C145.061 1.096 144.389 1.36 143.941 1.888C143.509 2.4 143.293 3.04 143.293 3.808Z" fill="white"/>
</svg>

