<svg width="139" height="69" viewBox="0 0 139 69" fill="none" xmlns="http://www.w3.org/2000/svg">
<path d="M17.4012 4.42441C18.6651 5.46461 21.0644 6.9122 24.8111 7.14095V50.9945H2.32917V19.4797C3.80042 18.7474 5.15162 17.7953 6.33635 16.6563C8.50691 14.5659 10.8711 11.0146 10.6975 5.55811L17.3945 4.42441H17.4012ZM18.1592 1.91992L8.18133 3.61463C9.87102 14.8164 0 17.9336 0 17.9336V53.3304H27.1487V4.77838C26.6928 4.81678 26.2554 4.83348 25.838 4.83348C20.485 4.83348 18.1659 1.92493 18.1659 1.92493L18.1592 1.91992Z" fill="#007A9B"/>
<path d="M43.9187 11.5508C44.3306 11.7166 44.7269 12.0817 45.1075 12.6461C45.5337 13.2942 45.9158 13.9703 46.2513 14.6697C46.6319 15.4489 47.0388 16.2781 47.4718 17.1575C47.8962 18.0193 48.3811 18.8501 48.9227 19.6436C49.4342 20.3984 50.0358 21.0881 50.7143 21.6973C51.3607 22.2782 52.1493 22.678 53 22.856C53.2229 22.9572 53.4557 23.035 53.6946 23.0881C53.9317 23.1382 54.0502 23.2551 54.0502 23.4421C54.0502 23.5656 53.9584 23.7209 53.7714 23.9062C53.4101 24.0055 53.0354 24.0472 52.6611 24.0298C52.454 24.0298 52.2487 24.0181 52.0433 23.9981C51.8379 23.978 51.661 23.9563 51.5174 23.9363C49.7676 23.628 48.3005 22.9178 47.1161 21.8058C45.9158 20.6707 44.9912 19.276 44.413 17.7285C44.0623 17.0695 43.7379 16.39 43.4396 15.6898C43.1604 15.0259 42.8194 14.3898 42.4211 13.7898C42.0603 13.2475 41.6084 12.7719 41.0853 12.3839C40.5395 12.0005 39.8836 11.8053 39.217 11.8279C38.8046 11.8279 38.5491 11.9114 38.4606 12.075C38.3721 12.2387 38.3204 12.5759 38.3204 13.0635V19.4282C38.2972 19.8401 38.3663 20.2519 38.5224 20.6337C38.6398 20.8839 38.8348 21.0894 39.0784 21.2198C39.3444 21.3529 39.6324 21.4366 39.9283 21.4669C40.2622 21.5092 40.6329 21.5709 41.0403 21.6522C41.1196 21.6796 41.2037 21.6904 41.2874 21.6839C41.4437 21.6826 41.5994 21.7034 41.7499 21.7457C41.8173 21.7623 41.8764 21.8027 41.9163 21.8595C41.9562 21.9162 41.9742 21.9856 41.9669 22.0546C41.9669 22.3434 41.8634 22.5171 41.658 22.5789C41.3548 22.6517 41.0431 22.6831 40.7314 22.6724C39.99 22.6724 39.2487 22.6362 38.5074 22.5638C37.7644 22.492 37.0347 22.4553 36.3134 22.4553C35.6756 22.4553 35.0412 22.487 34.4134 22.5488C33.7856 22.6106 33.1528 22.6406 32.515 22.6406C32.3361 22.6566 32.1559 22.6303 31.989 22.5638C31.9072 22.5121 31.8655 22.3434 31.8655 22.0546C31.8656 21.9844 31.8904 21.9165 31.9356 21.8627C31.9808 21.809 32.0434 21.7729 32.1126 21.7607C32.3201 21.7001 32.5315 21.6538 32.7454 21.6221C33.0025 21.5804 33.2763 21.5336 33.5652 21.4819C33.8524 21.4311 34.129 21.3324 34.3833 21.1897C34.6714 21.0378 34.9084 20.8046 35.0649 20.519C35.2214 20.2333 35.2903 19.908 35.2632 19.5835V13.2187C35.2632 11.4689 35.2788 9.7286 35.31 7.99772C35.3412 6.26684 35.3567 4.52706 35.3567 2.77837C35.3766 2.44093 35.2902 2.10575 35.1096 1.81999C34.9517 1.59955 34.7304 1.43242 34.4752 1.34079C34.2114 1.24784 33.9361 1.19166 33.657 1.17383C33.3682 1.15379 33.096 1.13209 32.8389 1.11205C32.6233 1.10029 32.4103 1.05871 32.2061 0.988496C32.1292 0.963568 32.0629 0.913405 32.0181 0.846132C31.9732 0.778859 31.9524 0.698416 31.959 0.617831C31.959 0.32898 32.0658 0.158675 32.2829 0.106916C32.5018 0.0557627 32.7259 0.0299916 32.9508 0.0301115C33.1762 0.0301115 33.4082 0.0417989 33.6453 0.0618348C33.8824 0.0818707 34.1128 0.0918887 34.3399 0.0918887H37.0281C37.8072 0.0918887 38.5948 0.0763054 39.3906 0.0451384C40.1865 0.0139715 40.974 -0.00105553 41.7532 5.75742e-05C42.4914 0.00661486 43.2266 0.0945245 43.9455 0.262194C44.7313 0.438437 45.4761 0.763776 46.1394 1.22058C46.8402 1.70655 47.4214 2.34542 47.8391 3.08893C48.291 3.8681 48.5175 4.86656 48.5187 6.08429C48.5231 6.7205 48.3802 7.3491 48.1012 7.92092C47.8242 8.48498 47.4589 9.00127 47.0193 9.45033C46.5726 9.90681 46.0751 10.3107 45.5366 10.6542C45.0187 10.99 44.4781 11.2896 43.9187 11.5508ZM45.3714 5.99079C45.3877 5.24731 45.2508 4.50843 44.969 3.82024C44.7199 3.22749 44.3457 2.69554 43.872 2.26078C43.3942 1.8299 42.8318 1.50348 42.2207 1.30239C41.5431 1.07986 40.8334 0.970421 40.1203 0.978478C39.399 0.978478 38.9254 1.10704 38.6994 1.36417C38.4734 1.6213 38.3621 1.99697 38.3655 2.49119V3.54975C38.3655 4.37456 38.3549 5.30122 38.3337 6.32973C38.3126 7.35824 38.3026 8.2849 38.3037 9.10972C38.3037 9.4186 38.3037 9.68241 38.2887 9.89779C38.2734 10.0804 38.2944 10.2643 38.3504 10.4388C38.3783 10.5126 38.423 10.579 38.481 10.6326C38.5389 10.6862 38.6086 10.7256 38.6844 10.7477C38.9512 10.8205 39.2278 10.8515 39.5042 10.8395C40.2806 10.8436 41.0558 10.7765 41.82 10.6391C42.4893 10.5273 43.1273 10.2746 43.6917 9.89779C44.2289 9.52315 44.6556 9.01109 44.9272 8.41514C45.2233 7.78735 45.3714 6.97923 45.3714 5.99079Z" fill="#1D1D1B"/>
<path d="M72.0275 13.0953C72.039 13.3083 71.9965 13.5208 71.904 13.713C71.7951 13.7315 71.6853 13.7443 71.5751 13.7514C71.4669 13.7626 71.3582 13.7682 71.2495 13.7681H63.5607C63.4551 13.7723 63.3509 13.7932 63.2518 13.8299C63.19 13.8299 63.1483 13.9117 63.1282 14.077C63.1066 14.2431 63.096 14.4104 63.0965 14.5779V14.825C63.1138 15.6361 63.2133 16.4434 63.3937 17.2343C63.5495 17.9494 63.8377 18.629 64.2436 19.2379C64.6361 19.8173 65.1669 20.2896 65.788 20.6121C66.4258 20.9527 67.2184 21.123 68.1656 21.123C68.5129 21.1268 68.8598 21.0954 69.2008 21.0295C69.4893 20.9713 69.7696 20.8782 70.0356 20.7523C70.3059 20.6206 70.564 20.4653 70.807 20.2881C71.0641 20.1034 71.3474 19.8975 71.6569 19.6704C71.7356 19.6405 71.8204 19.6302 71.904 19.6403C72.0476 19.6403 72.1194 19.7021 72.1194 19.8257C72.1026 19.9723 72.0447 20.1112 71.9524 20.2264C71.8333 20.4009 71.704 20.5681 71.565 20.7273C71.424 20.8896 71.2746 21.0446 71.1176 21.1914C70.964 21.335 70.8437 21.4385 70.7619 21.5003C70.2103 21.9831 69.5845 22.3738 68.9086 22.6574C68.2272 22.9091 67.5043 23.0297 66.7781 23.013C65.8971 23.0338 65.022 22.8629 64.2135 22.5121C63.4881 22.1841 62.8448 21.6987 62.3302 21.0913C61.8078 20.4681 61.4109 19.7497 61.1614 18.9758C60.8835 18.1344 60.7354 17.2555 60.7223 16.3695C60.7027 15.3837 60.7957 14.3989 60.9994 13.4342C61.1871 12.4928 61.532 11.5897 62.0196 10.7627C62.486 9.9778 63.1277 9.31147 63.8946 8.81593C64.666 8.31169 65.5977 8.05957 66.6896 8.05957C67.9252 8.05957 68.9826 8.32226 69.862 8.84765C70.7413 9.37303 71.3641 10.2535 71.7303 11.489C71.8112 11.753 71.8781 12.0211 71.9307 12.2922C71.9777 12.5579 72.01 12.826 72.0275 13.0953ZM69.4629 11.5809C69.4625 11.2283 69.3832 10.8803 69.2309 10.5624C69.0828 10.2411 68.8793 9.94833 68.6298 9.69751C68.3842 9.45197 68.0963 9.25286 67.7799 9.10978C67.4746 8.96927 67.1426 8.89583 66.8065 8.8944C66.3645 8.897 65.9298 9.00824 65.5409 9.21831C65.1282 9.43504 64.7569 9.72271 64.4439 10.0682C64.1254 10.418 63.8695 10.8202 63.6876 11.257C63.5079 11.6714 63.4131 12.1176 63.4087 12.5693C63.4087 12.6528 63.4755 12.7079 63.6091 12.7363C63.7618 12.7702 63.9171 12.7908 64.0733 12.7981C64.2429 12.8081 64.4129 12.8081 64.5825 12.7981C64.7495 12.788 64.8497 12.783 64.8914 12.783C65.4669 12.783 65.9461 12.788 66.329 12.7981C66.7119 12.8081 67.1805 12.7919 67.7348 12.7496C67.9819 12.7296 68.209 12.7096 68.4144 12.6879C68.5996 12.6722 68.7817 12.6306 68.9554 12.5643C69.1113 12.5003 69.2416 12.3863 69.326 12.2404C69.4292 12.0365 69.4764 11.809 69.4629 11.5809Z" fill="#1D1D1B"/>
<path d="M84.969 7.84424C85.0172 7.8491 85.0635 7.86562 85.104 7.89238C85.1444 7.91914 85.1777 7.95534 85.201 7.99785C85.2597 8.06841 85.2973 8.15404 85.3096 8.24496C85.309 8.3283 85.2983 8.41128 85.2778 8.49207C85.2581 8.57296 85.248 8.65591 85.2478 8.73918V10.4088L85.3096 10.4406C85.4041 10.3969 85.4883 10.3337 85.5567 10.2552C86.2202 9.6834 86.9332 9.17159 87.6872 8.72582C88.4496 8.29268 89.315 8.07401 90.1916 8.09302C90.8977 8.06919 91.6 8.20621 92.2453 8.49374C92.7685 8.74256 93.22 9.11998 93.5577 9.5907C93.9027 10.0913 94.1346 10.6611 94.2372 11.2604C94.3643 11.9481 94.4264 12.6464 94.4226 13.3458C94.4226 13.7576 94.4125 14.1589 94.3925 14.5496C94.3708 14.942 94.3608 15.3427 94.3608 15.7551V20.2632C94.3608 20.9622 94.5667 21.3946 94.9786 21.5605C95.4632 21.7379 95.9771 21.8218 96.4929 21.8076C96.5372 21.804 96.5814 21.8158 96.6179 21.841C96.6544 21.8663 96.6811 21.9035 96.6933 21.9462C96.725 22.0409 96.7408 22.1402 96.74 22.24C96.7398 22.3246 96.7239 22.4084 96.6933 22.4871C96.6632 22.569 96.5748 22.6107 96.4312 22.6107C96.1472 22.6113 95.8635 22.5957 95.5813 22.564C95.2991 22.5331 95.0154 22.5175 94.7315 22.5172H92.414C92.247 22.5172 92.08 22.5172 91.9131 22.5339C91.7461 22.5506 91.5791 22.5589 91.4122 22.579C91.2452 22.599 91.0782 22.6157 90.9113 22.6257C90.7443 22.6357 90.5773 22.6408 90.4104 22.6408C90.2293 22.6362 90.0487 22.6212 89.8694 22.5957C89.6323 22.5645 89.5138 22.4532 89.5138 22.2617C89.5054 22.1752 89.5249 22.0882 89.5693 22.0134C89.6137 21.9387 89.6808 21.88 89.7609 21.846C89.9532 21.7654 90.1563 21.713 90.3636 21.6907C90.6007 21.659 90.8378 21.6189 91.0749 21.5672C91.3017 21.5208 91.5043 21.3946 91.6459 21.2115C91.8233 20.969 91.9202 20.6771 91.9231 20.3767C91.9431 20.0261 91.9548 19.7272 91.9548 19.4801C91.9748 19.0282 91.9849 18.5829 91.9849 18.1444V14.1756C91.9856 13.6498 91.96 13.1243 91.9081 12.6011C91.8668 12.1247 91.7413 11.6595 91.5374 11.227C91.3424 10.8256 91.0372 10.4879 90.6575 10.2536C90.2651 10.0064 89.7408 9.88289 89.0813 9.88289C88.6456 9.8769 88.2121 9.94464 87.799 10.0833C87.3885 10.2305 86.9909 10.4114 86.6102 10.6242C86.4255 10.7277 86.1939 10.8613 85.9157 11.0249C85.6757 11.1514 85.4774 11.3445 85.3446 11.5809C85.2909 11.7675 85.2546 11.9587 85.2361 12.152C85.2044 12.4108 85.1793 12.7046 85.1593 13.0335C85.1393 13.3625 85.1276 13.7014 85.1276 14.052V20.0762C85.1204 20.4403 85.2272 20.7976 85.4331 21.098C85.5209 21.2351 85.6361 21.3526 85.7714 21.4431C85.9067 21.5336 86.0593 21.5951 86.2195 21.6239C86.5116 21.6649 86.8062 21.6856 87.1011 21.6857C87.2723 21.6855 87.442 21.7167 87.602 21.7775C87.7256 21.8198 87.7873 21.9312 87.7873 22.1115C87.7926 22.1784 87.7844 22.2457 87.7632 22.3094C87.742 22.373 87.7082 22.4318 87.6638 22.4821C87.5546 22.5245 87.4431 22.5608 87.3299 22.5907C87.2124 22.6042 87.0941 22.6093 86.9759 22.6057C86.5295 22.606 86.0835 22.5803 85.6402 22.5289C85.2097 22.477 84.7764 22.4508 84.3428 22.4504C83.822 22.4499 83.3015 22.4761 82.7834 22.5289C82.2825 22.579 81.7582 22.6057 81.2239 22.6057C81.0809 22.6093 80.9388 22.5832 80.8065 22.5289C80.6952 22.4766 80.6395 22.358 80.6395 22.1733C80.6432 22.1085 80.6658 22.0462 80.7043 21.994C80.7429 21.9418 80.7958 21.902 80.8566 21.8794C81.0242 21.7991 81.2 21.737 81.3809 21.6941C81.5849 21.6429 81.7861 21.581 81.9836 21.5087C82.156 21.4518 82.3103 21.3504 82.4311 21.2149C82.6193 20.9338 82.7342 20.6101 82.765 20.2732C82.8115 19.93 82.8371 19.5843 82.8418 19.238V12.8783C82.8485 12.4531 82.8071 12.0285 82.7183 11.6127C82.7021 11.5078 82.6651 11.4073 82.6095 11.3169C82.5539 11.2266 82.4807 11.1483 82.3943 11.0867C82.2226 10.9653 82.0357 10.8671 81.8383 10.7945C81.6413 10.7211 81.466 10.6593 81.3124 10.6075C81.1588 10.5558 81.0803 10.4689 81.0803 10.3454V10.2836C81.1634 10.1372 81.2773 10.0107 81.4143 9.91295C81.4961 9.85117 81.7181 9.70758 82.0821 9.4805C82.4461 9.25343 82.8351 9.02302 83.2509 8.78593C83.6666 8.54883 84.0523 8.33345 84.3929 8.1381C84.5735 8.0191 84.7666 7.92054 84.969 7.84424Z" fill="#1D1D1B"/>
<path d="M116.198 13.095C116.21 13.308 116.167 13.5205 116.075 13.7127C115.968 13.7332 115.86 13.7483 115.751 13.7578C115.64 13.7692 115.528 13.7748 115.417 13.7745H107.735C107.629 13.7787 107.525 13.7995 107.426 13.8363C107.364 13.8363 107.322 13.9181 107.302 14.0834C107.281 14.2495 107.27 14.4168 107.271 14.5843V14.8314C107.288 15.6423 107.386 16.4495 107.565 17.2407C107.72 17.9558 108.009 18.6353 108.414 19.2443C108.807 19.8237 109.338 20.296 109.959 20.6184C110.597 20.9591 111.389 21.1294 112.336 21.1294C112.684 21.1332 113.031 21.1018 113.372 21.0359C113.66 20.9776 113.94 20.8846 114.206 20.7587C114.477 20.627 114.735 20.4716 114.978 20.2945C115.235 20.1098 115.518 19.9038 115.828 19.6768C115.906 19.6469 115.991 19.6365 116.075 19.6467C116.218 19.6467 116.29 19.7085 116.29 19.832C116.273 19.9787 116.216 20.1176 116.123 20.2328C116.004 20.4073 115.875 20.5745 115.736 20.7337C115.595 20.8964 115.446 21.0514 115.288 21.1978C115.175 21.3068 115.057 21.4099 114.933 21.5067C114.381 21.9895 113.755 22.3802 113.079 22.6638C112.398 22.9156 111.675 23.0363 110.949 23.0194C110.068 23.0402 109.193 22.8693 108.384 22.5185C107.659 22.1905 107.016 21.7051 106.501 21.0976C105.979 20.4745 105.582 19.7561 105.332 18.9822C105.058 18.1441 104.912 17.2693 104.9 16.3875C104.88 15.4018 104.973 14.417 105.177 13.4523C105.365 12.5108 105.709 11.6077 106.197 10.7808C106.662 9.99697 107.301 9.3308 108.065 8.83399C108.838 8.32976 109.77 8.07764 110.86 8.07764C112.096 8.07764 113.153 8.34033 114.033 8.86572C114.912 9.3911 115.535 10.2716 115.901 11.5071C115.982 11.7711 116.049 12.0392 116.101 12.3102C116.148 12.5699 116.18 12.8318 116.198 13.095ZM113.634 11.5806C113.633 11.2282 113.554 10.8804 113.403 10.5621C113.254 10.2411 113.05 9.9484 112.801 9.69721C112.555 9.45167 112.267 9.25256 111.951 9.10949C111.645 8.96897 111.313 8.89553 110.977 8.8941C110.535 8.8967 110.101 9.00794 109.712 9.21801C109.299 9.43474 108.928 9.72241 108.615 10.0679C108.296 10.4177 108.04 10.8199 107.858 11.2567C107.679 11.6711 107.584 12.1173 107.58 12.569C107.58 12.6525 107.646 12.7076 107.782 12.736C107.934 12.77 108.088 12.7907 108.244 12.7978C108.411 12.8075 108.578 12.8075 108.745 12.7978C108.912 12.7877 109.012 12.7827 109.054 12.7827C109.63 12.7827 110.11 12.7877 110.491 12.7978C110.873 12.8078 111.341 12.7922 111.896 12.751C112.143 12.731 112.37 12.7109 112.575 12.6892C112.76 12.6738 112.943 12.6322 113.116 12.5657C113.273 12.5025 113.403 12.3884 113.487 12.2418C113.594 12.0384 113.644 11.8101 113.634 11.5806Z" fill="#1D1D1B"/>
<path d="M136.553 13.095C136.565 13.308 136.522 13.5205 136.43 13.7127C136.216 13.752 135.999 13.7727 135.782 13.7745H128.09C127.984 13.7787 127.88 13.7995 127.781 13.8363C127.719 13.8363 127.677 13.9181 127.657 14.0834C127.637 14.2496 127.627 14.4169 127.627 14.5843V14.8314C127.643 15.6424 127.742 16.4496 127.921 17.2407C128.076 17.9557 128.364 18.6352 128.769 19.2443C129.162 19.8233 129.693 20.2955 130.314 20.6184C130.951 20.9591 131.745 21.1294 132.693 21.1294C133.04 21.1332 133.387 21.1018 133.728 21.0359C134.017 20.9778 134.297 20.8847 134.563 20.7587C134.834 20.6266 135.092 20.4713 135.336 20.2945C135.593 20.1098 135.876 19.9038 136.184 19.6768C136.263 19.6472 136.348 19.6369 136.431 19.6467C136.575 19.6467 136.648 19.7085 136.648 19.832C136.632 19.9788 136.574 20.1179 136.481 20.2328C136.363 20.4072 136.234 20.5745 136.096 20.7337C135.95 20.9006 135.802 21.0542 135.648 21.1978C135.495 21.3414 135.374 21.4449 135.293 21.5067C134.74 21.9888 134.115 22.3794 133.439 22.6638C132.757 22.9154 132.034 23.0361 131.307 23.0194C130.427 23.0402 129.552 22.8693 128.744 22.5185C128.018 22.19 127.375 21.7048 126.859 21.0976C126.337 20.474 125.94 19.7558 125.69 18.9822C125.417 18.1439 125.271 17.2692 125.258 16.3875C125.239 15.4017 125.332 14.4169 125.537 13.4523C125.724 12.5109 126.068 11.6078 126.555 10.7808C127.021 9.9969 127.661 9.33074 128.425 8.83399C129.197 8.32976 130.128 8.07764 131.22 8.07764C132.456 8.07764 133.513 8.34033 134.393 8.86572C135.272 9.3911 135.895 10.2716 136.261 11.5071C136.342 11.7711 136.41 12.0392 136.463 12.3102C136.507 12.57 136.537 12.832 136.553 13.095ZM133.99 11.5806C133.99 11.228 133.911 10.88 133.758 10.5621C133.609 10.2407 133.405 9.94796 133.155 9.69721C132.91 9.45169 132.623 9.25257 132.307 9.10949C132.002 8.96917 131.67 8.89574 131.334 8.8941C130.891 8.89691 130.456 9.00812 130.067 9.21801C129.654 9.43476 129.284 9.72244 128.971 10.0679C128.652 10.4172 128.395 10.8195 128.213 11.2567C128.034 11.6712 127.94 12.1174 127.936 12.569C127.936 12.6525 128.003 12.7076 128.136 12.736C128.289 12.77 128.444 12.7907 128.601 12.7978C128.77 12.8078 128.94 12.8078 129.11 12.7978C129.277 12.7877 129.377 12.7827 129.419 12.7827C129.994 12.7827 130.473 12.7877 130.855 12.7978C131.236 12.8078 131.705 12.7922 132.26 12.751C132.508 12.731 132.733 12.7109 132.94 12.6892C133.125 12.6736 133.307 12.632 133.481 12.5657C133.637 12.5037 133.767 12.3922 133.853 12.2484C133.957 12.0418 134.004 11.8114 133.99 11.5806Z" fill="#1D1D1B"/>
<path d="M52.1351 30.9487C51.969 31.4534 51.8702 31.9777 51.8413 32.5082C51.7901 33.1571 51.7283 33.7905 51.6559 34.4083C51.5985 34.9514 51.4951 35.4887 51.347 36.0145C51.2135 36.467 50.9931 36.694 50.6792 36.694C50.4337 36.694 50.2885 36.5955 50.2484 36.4002C50.2054 36.1553 50.1998 35.9054 50.2317 35.6588C50.2634 35.36 50.2885 35.0361 50.3102 34.6854C50.3322 34.3485 50.2792 34.0109 50.1549 33.697C50.0329 33.4306 49.8189 33.2172 49.5522 33.0959C49.2162 32.931 48.8569 32.8184 48.4869 32.762C48.0525 32.6873 47.6145 32.636 47.1746 32.6084C46.7104 32.5772 46.273 32.5616 45.8622 32.5616C45.5533 32.5616 45.2745 32.5616 45.0274 32.5767C44.7803 32.5917 44.5749 32.5917 44.4096 32.5917C44.2443 32.5917 44.1325 32.5917 44.0089 32.5767C43.9488 32.5714 43.8884 32.5798 43.832 32.6012C43.7756 32.6226 43.7248 32.6564 43.6833 32.7002C43.5666 32.844 43.492 33.0174 43.4679 33.2011C43.4073 33.5528 43.3815 33.9096 43.3911 34.2663L43.3293 38.0348C43.2882 39.848 43.2932 41.6602 43.3444 43.4712C43.3956 45.2822 43.4006 47.0943 43.3594 48.9076C43.3594 49.2415 43.3644 49.571 43.3744 49.896C43.3849 50.2278 43.4212 50.5583 43.483 50.8845C43.5865 51.4622 43.8442 51.8484 44.256 52.0432C44.6648 52.238 45.1033 52.3633 45.5533 52.4139L46.7722 52.5525C47.1328 52.5942 47.3132 52.7378 47.3132 52.9849C47.3132 53.3188 47.2414 53.4941 47.0978 53.5108C46.8927 53.5341 46.6863 53.5441 46.48 53.5409C45.6552 53.5409 44.8365 53.5153 44.0239 53.4641C43.2114 53.4129 42.3927 53.3873 41.5679 53.3873C40.8265 53.3873 40.0902 53.4129 39.3589 53.4641C38.6276 53.5153 37.8918 53.5409 37.1516 53.5409C36.9809 53.5406 36.8103 53.5305 36.6407 53.5108C36.4654 53.4891 36.3786 53.3656 36.3786 53.1402C36.3662 53.0408 36.3867 52.9401 36.4371 52.8535C36.4875 52.767 36.5649 52.6993 36.6574 52.661C36.8443 52.5886 37.043 52.5518 37.2434 52.5525C37.3783 52.5567 37.5131 52.5466 37.6458 52.5224C38.1361 52.484 38.619 52.3801 39.0817 52.2135C39.4066 52.0953 39.6906 51.886 39.8999 51.6108C40.0984 51.32 40.2254 50.9865 40.2705 50.6374C40.338 50.1568 40.3687 49.6717 40.3624 49.1864V34.2229C40.3624 34.1194 40.3574 33.9291 40.3473 33.6519C40.3448 33.4602 40.3297 33.2689 40.3023 33.0792C40.2611 32.8944 40.024 32.7659 39.591 32.6935C39.1317 32.6193 38.6671 32.583 38.2018 32.585H36.2901C35.8241 32.5838 35.3605 32.6513 34.9143 32.7854C34.4314 32.9448 33.9923 33.2146 33.632 33.5734C33.4702 33.7712 33.3354 33.9896 33.2312 34.2229C33.0643 34.5569 32.8973 34.8908 32.707 35.2581C32.5166 35.6254 32.3396 35.9427 32.166 36.2299C31.9924 36.517 31.8621 36.6623 31.7803 36.6623C31.6161 36.675 31.4524 36.6314 31.3161 36.5388C31.2576 36.478 31.2134 36.405 31.1868 36.3249C31.1603 36.2449 31.152 36.1599 31.1625 36.0763C31.1835 35.5989 31.2665 35.1263 31.4096 34.6704C31.6115 33.8542 31.7455 33.0226 31.8104 32.1843C31.8304 31.9572 31.8521 31.7151 31.8721 31.458C31.8882 31.2215 31.9348 30.988 32.0107 30.7634C32.0788 30.5713 32.1935 30.3992 32.3447 30.2625C32.5166 30.1176 32.7381 30.0451 32.9624 30.0605C33.0156 30.0623 33.0675 30.0774 33.1134 30.1046C33.1592 30.1317 33.1974 30.17 33.2246 30.2158C33.2964 30.3193 33.3915 30.4362 33.4867 30.5714C33.606 30.7199 33.7467 30.8499 33.9041 30.9571C34.1219 31.0941 34.3731 31.1687 34.6304 31.1725C35.866 31.2348 37.1321 31.2816 38.4289 31.3127C39.7257 31.3439 40.9924 31.3589 42.229 31.3578C43.2175 31.3578 44.1697 31.3478 45.0858 31.3277C46.0019 31.3077 46.9542 31.2971 47.9426 31.296C48.2509 31.296 48.5648 31.291 48.8843 31.281C49.1999 31.2716 49.5147 31.2459 49.8277 31.2042C50.0558 31.1715 50.27 31.0748 50.4454 30.9254C50.6038 30.7816 50.7465 30.6215 50.8712 30.4478C50.9947 30.2809 51.0966 30.1339 51.1784 30.0004C51.203 29.9452 51.2418 29.8974 51.2907 29.862C51.3397 29.8265 51.3971 29.8045 51.4572 29.7983C51.8079 29.7983 52.0283 29.9336 52.1251 30.2007C52.2166 30.4411 52.2201 30.706 52.1351 30.9487Z" fill="#1D1D1B"/>
<path d="M67.0553 41.5744C67.0556 41.8027 67.0137 42.0292 66.9317 42.2423C66.8573 42.4479 66.7222 42.626 66.5444 42.7532C66.3468 42.8823 66.1115 42.9411 65.8765 42.9202C65.5373 42.8809 65.2161 42.7466 64.9498 42.5328C64.8659 42.4822 64.7931 42.4151 64.7357 42.3356C64.6783 42.2561 64.6376 42.1659 64.6159 42.0703C64.5641 41.8649 64.5074 41.6579 64.4489 41.4525C64.3931 41.2612 64.3098 41.079 64.2018 40.9116C64.1367 40.8286 64.0514 40.7638 63.954 40.7231C63.8567 40.6825 63.7506 40.6675 63.6458 40.6795C63.2229 40.6773 62.8036 40.7561 62.4103 40.9116C62.0349 41.0576 61.6815 41.2548 61.3601 41.4976C61.0633 41.7215 60.8118 41.9997 60.6187 42.3174C60.4417 42.5945 60.3451 42.9153 60.3399 43.2441V50.7492C60.3435 50.8845 60.3598 51.0192 60.3883 51.1516C60.4135 51.457 60.5298 51.7479 60.7223 51.9864C60.8925 52.19 61.1097 52.3493 61.3551 52.4506C61.6156 52.5572 61.8921 52.6199 62.1732 52.6359C62.4721 52.6559 62.7659 52.6659 63.0531 52.6659C63.2401 52.6659 63.3319 52.8513 63.3319 53.2219C63.3404 53.2786 63.3282 53.3365 63.2975 53.3849C63.2669 53.4334 63.2198 53.4691 63.165 53.4858C63.0594 53.5148 62.9505 53.5299 62.8411 53.5308C62.3294 53.5313 61.8183 53.4956 61.3116 53.424C60.8057 53.3509 60.2951 53.3147 59.7839 53.3154C59.2056 53.3149 58.6278 53.3512 58.0541 53.424C57.4798 53.4953 56.9015 53.531 56.3227 53.5308C56.1695 53.5251 56.0183 53.4941 55.8752 53.439C55.7957 53.4166 55.7262 53.3676 55.6785 53.3001C55.6308 53.2326 55.6077 53.1508 55.6131 53.0683C55.6066 52.977 55.6348 52.8865 55.6921 52.815C55.7493 52.7436 55.8314 52.6963 55.922 52.6826C56.1274 52.6309 56.3544 52.5791 56.6015 52.5274C56.8545 52.4738 57.0989 52.3856 57.3278 52.2652C57.4534 52.1905 57.5594 52.0871 57.6372 51.9634C57.715 51.8398 57.7623 51.6995 57.7753 51.554C57.8567 51.1464 57.9086 50.7335 57.9306 50.3184C57.9506 49.9077 57.9606 49.4958 57.9606 49.0829C57.9606 48.2803 57.9556 47.539 57.9456 46.8589C57.9339 46.1793 57.9306 45.438 57.9306 44.6349C57.9306 44.3677 57.9306 44.0906 57.9139 43.8001C57.9069 43.5245 57.8503 43.2525 57.7469 42.997C57.6827 42.7778 57.5528 42.5837 57.3746 42.441C57.2188 42.3262 57.0541 42.224 56.882 42.1354C56.7268 42.0536 56.5832 41.9684 56.4496 41.8883C56.3841 41.8496 56.3288 41.7957 56.2884 41.7312C56.2481 41.6667 56.2237 41.5935 56.2175 41.5176C56.26 41.4132 56.3365 41.3261 56.4346 41.2705C56.5364 41.2087 56.6299 41.157 56.7117 41.1152C56.9171 41.0134 57.1175 40.9099 57.3145 40.8064C57.5115 40.7028 57.7102 40.591 57.9172 40.4724C58.0894 40.3734 58.254 40.2618 58.4098 40.1385L58.9674 39.7061C59.1456 39.5674 59.3312 39.4387 59.5234 39.3204C59.6749 39.2199 59.8454 39.1517 60.0243 39.12C60.0493 39.11 60.0762 39.1061 60.103 39.1087C60.1297 39.1113 60.1554 39.1204 60.1779 39.135C60.2168 39.1642 60.2582 39.1899 60.3015 39.2118C60.3519 39.3296 60.3829 39.4548 60.3933 39.5825C60.4159 39.767 60.4265 39.9527 60.4251 40.1385V41.0969C60.4451 41.0151 60.592 40.8698 60.8575 40.6644C61.1809 40.4229 61.5219 40.2058 61.8777 40.0149C62.3138 39.7779 62.7683 39.5764 63.2368 39.4122C63.7125 39.2412 64.2139 39.1526 64.7194 39.1501C65.1082 39.1361 65.4947 39.2157 65.8464 39.3821C66.1272 39.5232 66.3744 39.7231 66.5711 39.9682C66.7544 40.2006 66.8864 40.4692 66.9584 40.7563C67.0231 41.0242 67.0556 41.2988 67.0553 41.5744Z" fill="#1D1D1B"/>
<path d="M86.6372 51.1184C86.6223 51.2124 86.6022 51.3054 86.5771 51.3972C86.4256 52.0349 86.0537 52.5985 85.5269 52.9884C85.0025 53.3853 84.3612 53.5967 83.7036 53.5895C83.0246 53.5895 82.4892 53.3735 82.0974 52.9416C81.696 52.4913 81.4096 51.9505 81.2626 51.3655C81.0147 51.6961 80.7296 51.9969 80.4127 52.2621C80.0618 52.5581 79.6846 52.8213 79.2857 53.0485C78.8809 53.2823 78.4507 53.4688 78.0034 53.6045C77.5883 53.7351 77.1562 53.8032 76.7211 53.8065C75.6714 53.8065 74.9351 53.5026 74.5121 52.8949C74.0891 52.2871 73.8782 51.5202 73.8793 50.5941C73.8763 50.1519 73.9997 49.718 74.235 49.3435C74.4774 48.9539 74.7794 48.6046 75.1299 48.3083C75.4895 47.9995 75.8814 47.7302 76.2987 47.5052C76.6837 47.2957 77.0813 47.11 77.4891 46.9492C78.2082 46.6821 78.8616 46.4506 79.4493 46.2547C80.037 46.0588 80.701 45.8679 81.4412 45.682V43.3044C81.4412 42.4395 81.282 41.7444 80.9637 41.219C80.6453 40.6936 80.0226 40.4309 79.0953 40.4309C78.5813 40.407 78.07 40.5187 77.6127 40.7548C76.9714 41.1135 76.4931 41.7055 76.277 42.4078C76.1951 42.6966 76.1334 42.9087 76.0916 43.0573C75.9778 43.4016 75.7491 43.6963 75.4438 43.8921C75.1263 44.1124 74.7483 44.2291 74.3619 44.226C74.27 44.2386 74.1768 44.215 74.1021 44.1602C74.0273 44.1053 73.9768 44.0236 73.9611 43.9322C73.9217 43.7545 73.901 43.5732 73.8994 43.3912C73.8994 42.897 74.1053 42.3877 74.5171 41.8635C74.9555 41.3106 75.464 40.8172 76.0298 40.3958C76.633 39.9464 77.2919 39.5771 77.99 39.2972C78.5936 39.0297 79.2436 38.8828 79.9035 38.8647C80.0846 38.8676 80.2653 38.8827 80.4444 38.9098C80.6615 38.9415 80.8819 38.9783 81.1123 39.0184C81.3314 39.0583 81.5483 39.1102 81.7618 39.1736C81.9336 39.2213 82.1012 39.2833 82.2627 39.359C82.9417 39.7096 83.3636 40.1676 83.5283 40.7331C83.6955 41.3494 83.7748 41.9863 83.7637 42.6248C83.7637 43.404 83.7537 44.2327 83.7337 45.1109C83.7136 45.9892 83.703 46.8179 83.7019 47.5971C83.7019 47.7824 83.7019 48.0562 83.6869 48.4152C83.6719 48.7742 83.6752 49.1465 83.6869 49.5272C83.6986 49.9079 83.717 50.2685 83.7487 50.6091C83.7511 50.8503 83.8082 51.0878 83.9156 51.3037C83.9955 51.4468 84.1288 51.5525 84.2863 51.5976C84.4483 51.6491 84.6173 51.675 84.7872 51.6744C84.9785 51.6819 85.1688 51.6448 85.3432 51.5658C85.4774 51.5006 85.6021 51.4175 85.7139 51.3187C85.8157 51.2269 85.9092 51.1401 85.991 51.0566C86.0662 50.9782 86.1635 50.9247 86.2699 50.903C86.5153 50.8412 86.6372 50.913 86.6372 51.1184ZM81.4262 47.1446C81.4191 47.0152 81.404 46.8864 81.3811 46.7589C81.1958 46.8006 80.9787 46.8557 80.7316 46.9259C80.4845 46.996 80.2307 47.0811 79.9753 47.173C79.7198 47.2648 79.4744 47.3583 79.2339 47.4518C78.9935 47.5453 78.7865 47.6188 78.6011 47.6839C78.0429 47.8905 77.5253 48.1934 77.0717 48.5788C76.8455 48.766 76.6651 49.0025 76.5444 49.2703C76.4237 49.538 76.3659 49.8298 76.3755 50.1233C76.3548 50.6277 76.4958 51.1255 76.7779 51.5441C77.045 51.9148 77.5086 52.1001 78.1687 52.1001C78.6251 52.0939 79.0741 51.9831 79.481 51.7762C79.8916 51.5825 80.2634 51.3154 80.578 50.9881C80.7826 50.769 80.9587 50.525 81.1023 50.2618C81.2621 50.0141 81.3674 49.7352 81.4112 49.4437C81.4083 49.3461 81.4134 49.2483 81.4262 49.1515C81.4341 49.1158 81.4391 49.0795 81.4412 49.043V47.6839C81.4457 47.4835 81.4407 47.3038 81.4262 47.1446Z" fill="#1D1D1B"/>
<path d="M97.9122 39.9365C97.9122 41.7899 97.9072 43.6176 97.8972 45.4197C97.8872 47.2218 97.8816 49.0495 97.8805 50.9029C97.8805 51.5618 97.8654 52.2414 97.8354 52.9415C97.8053 53.6417 97.7497 54.3212 97.6684 54.9802C97.5292 56.2153 97.0475 57.387 96.2776 58.3629C95.512 59.3221 94.6156 60.1691 93.6145 60.8791C93.4612 60.9959 93.3018 61.1046 93.137 61.2046C92.9775 61.3181 92.7909 61.3872 92.596 61.405H92.5342C92.4925 61.3215 92.4574 61.238 92.4257 61.1729C92.393 61.0977 92.3459 61.0297 92.2871 60.9726C92.3279 60.8888 92.3795 60.8107 92.4407 60.7405C92.5025 60.6687 92.5643 60.5902 92.6261 60.5084C92.9767 60.0954 93.3217 59.6992 93.6612 59.3196C94.0149 58.919 94.3209 58.4785 94.5729 58.0073C94.8534 57.4706 95.0611 56.899 95.1906 56.3075C95.3151 55.7225 95.3977 55.1294 95.4378 54.5327C95.4778 53.9249 95.4945 53.3172 95.4845 52.7094C95.4745 52.1017 95.4678 51.5006 95.4678 50.9029C95.4678 49.7898 95.4734 48.6727 95.4845 47.5519C95.4956 46.431 95.5006 45.3134 95.4995 44.1992C95.4995 43.9738 95.4995 43.6799 95.4845 43.3193C95.4913 43.0374 95.4343 42.7577 95.3175 42.5011C95.2124 42.2731 95.0328 42.0877 94.8083 41.9752C94.6047 41.8778 94.3922 41.8001 94.1738 41.7431C93.9685 41.693 93.7881 41.6413 93.6345 41.5895C93.564 41.5713 93.5021 41.5289 93.4597 41.4697C93.4173 41.4105 93.397 41.3382 93.4024 41.2656C93.4048 41.2026 93.4196 41.1406 93.446 41.0833C93.4723 41.026 93.5097 40.9745 93.5561 40.9317C93.6796 40.8498 93.9434 40.7063 94.3441 40.4992C94.7448 40.2922 95.179 40.0785 95.6264 39.8514C96.0739 39.6243 96.4963 39.4239 96.877 39.2486C97.1044 39.1249 97.3493 39.0365 97.6033 38.9865C97.656 38.9837 97.7086 38.9935 97.7567 39.015C97.8049 39.0365 97.8473 39.069 97.8805 39.1101C97.8805 39.2536 97.8805 39.3922 97.8972 39.5275C97.9139 39.6627 97.9122 39.798 97.9122 39.9365ZM98.1894 31.7552C98.1939 31.9776 98.1541 32.1986 98.0721 32.4053C97.9901 32.612 97.8676 32.8003 97.7118 32.959C97.5595 33.1212 97.3748 33.2496 97.1698 33.3358C96.9647 33.4221 96.7438 33.4644 96.5214 33.4599C96.0916 33.4465 95.6832 33.2699 95.3792 32.9658C95.0752 32.6618 94.8985 32.2534 94.8851 31.8237C94.8745 31.3766 95.0407 30.9434 95.3476 30.6182C95.4956 30.4564 95.6764 30.3281 95.878 30.2417C96.0795 30.1553 96.2971 30.1129 96.5164 30.1173C96.7357 30.1115 96.954 30.1496 97.1584 30.2293C97.3628 30.309 97.5493 30.4287 97.7068 30.5814C97.8645 30.7321 97.9888 30.914 98.0719 31.1156C98.155 31.3172 98.195 31.5339 98.1894 31.7519V31.7552Z" fill="#1D1D1B"/>
<path d="M119.688 51.1184C119.673 51.2125 119.652 51.3056 119.626 51.3972C119.475 52.0351 119.103 52.5989 118.576 52.9884C118.052 53.3853 117.411 53.5967 116.754 53.5895C116.074 53.5895 115.539 53.3735 115.148 52.9416C114.747 52.4912 114.461 51.9505 114.313 51.3655C114.066 51.6965 113.781 51.9974 113.464 52.2621C113.113 52.5589 112.736 52.8222 112.336 53.0485C111.932 53.2823 111.503 53.4688 111.056 53.6045C110.641 53.7349 110.209 53.803 109.774 53.8065C108.724 53.8065 107.988 53.5026 107.565 52.8949C107.142 52.2871 106.931 51.5202 106.932 50.5941C106.929 50.1522 107.052 49.7185 107.286 49.3435C107.529 48.9542 107.832 48.605 108.182 48.3083C108.542 47.9995 108.934 47.7302 109.351 47.5052C109.736 47.2957 110.133 47.11 110.54 46.9492C111.261 46.6821 111.915 46.4506 112.502 46.2547C113.088 46.0588 113.752 45.8679 114.494 45.682V43.3044C114.494 42.4395 114.334 41.7444 114.014 41.219C113.695 40.6936 113.073 40.4309 112.148 40.4309C111.634 40.4073 111.123 40.5189 110.665 40.7548C110.321 40.9485 110.022 41.2118 109.785 41.5278C109.586 41.7931 109.435 42.0908 109.338 42.4078C109.254 42.6966 109.193 42.9087 109.152 43.0573C109.038 43.4017 108.809 43.6964 108.503 43.8921C108.186 44.1126 107.809 44.2293 107.423 44.226C107.331 44.2386 107.237 44.2151 107.162 44.1603C107.087 44.1055 107.036 44.0237 107.02 43.9322C106.981 43.7545 106.96 43.5732 106.959 43.3912C106.959 42.897 107.164 42.3877 107.576 41.8635C108.016 41.311 108.525 40.8177 109.091 40.3958C109.69 39.9471 110.345 39.5778 111.039 39.2972C111.643 39.0297 112.294 38.8828 112.954 38.8647C113.135 38.8677 113.316 38.8827 113.495 38.9098C113.712 38.9415 113.933 38.9783 114.163 39.0184C114.382 39.0583 114.598 39.1102 114.811 39.1736C114.983 39.2213 115.15 39.2833 115.312 39.359C115.992 39.7096 116.414 40.1676 116.579 40.7331C116.748 41.3492 116.83 41.986 116.823 42.6248C116.823 43.404 116.812 44.2327 116.791 45.1109C116.77 45.9892 116.76 46.8179 116.761 47.5971C116.761 47.7824 116.761 48.0562 116.746 48.4152C116.731 48.7742 116.734 49.1465 116.746 49.5272C116.758 49.9079 116.776 50.2685 116.808 50.6091C116.811 50.8502 116.868 51.0874 116.975 51.3037C117.055 51.4468 117.188 51.5525 117.345 51.5976C117.507 51.649 117.676 51.6749 117.846 51.6744C118.038 51.6823 118.228 51.6451 118.402 51.5658C118.537 51.5006 118.661 51.4175 118.773 51.3187C118.877 51.2269 118.968 51.1401 119.052 51.0566C119.126 50.9784 119.223 50.9248 119.329 50.903C119.568 50.8462 119.688 50.918 119.688 51.1184ZM114.485 47.1446C114.478 47.0152 114.462 46.8864 114.439 46.7589C114.253 46.8006 114.038 46.8557 113.791 46.9259C113.544 46.996 113.29 47.0811 113.033 47.173C112.776 47.2648 112.532 47.3583 112.293 47.4518C112.054 47.5453 111.844 47.6188 111.659 47.6839C111.101 47.8905 110.584 48.1934 110.131 48.5788C109.905 48.766 109.724 49.0025 109.604 49.2703C109.483 49.538 109.425 49.8298 109.435 50.1233C109.413 50.6278 109.554 51.1258 109.837 51.5441C110.104 51.9148 110.567 52.1001 111.226 52.1001C111.683 52.094 112.132 51.9832 112.539 51.7762C112.949 51.5829 113.321 51.3158 113.635 50.9881C113.841 50.7695 114.018 50.5255 114.161 50.2618C114.321 50.0138 114.426 49.735 114.47 49.4437C114.467 49.3461 114.473 49.2483 114.485 49.1515C114.493 49.1158 114.498 49.0795 114.5 49.043V47.6839C114.499 47.4835 114.494 47.3038 114.485 47.1446Z" fill="#1D1D1B"/>
<path d="M137.85 41.5743C137.851 41.8026 137.809 42.029 137.727 42.2421C137.653 42.4476 137.518 42.6258 137.341 42.7531C137.143 42.8818 136.908 42.9406 136.673 42.92C136.334 42.8801 136.013 42.7459 135.747 42.5327C135.664 42.4814 135.593 42.414 135.537 42.3345C135.482 42.255 135.443 42.1651 135.423 42.0702C135.371 41.8648 135.314 41.6578 135.256 41.4524C135.201 41.2608 135.117 41.0785 135.009 40.9114C134.943 40.8285 134.858 40.7636 134.761 40.723C134.663 40.6824 134.557 40.6673 134.453 40.6793C134.03 40.6772 133.61 40.756 133.217 40.9114C132.842 41.0579 132.488 41.2551 132.167 41.4975C131.87 41.7214 131.619 41.9996 131.425 42.3173C131.25 42.5948 131.154 42.9154 131.148 43.2439V50.749C131.147 50.8839 131.158 51.0186 131.182 51.1514C131.204 51.4558 131.317 51.7465 131.506 51.9863C131.677 52.1896 131.894 52.3488 132.14 52.4504C132.401 52.5571 132.677 52.6197 132.958 52.6358C133.257 52.6558 133.549 52.6658 133.838 52.6658C134.023 52.6658 134.117 52.8511 134.117 53.2218C134.125 53.2785 134.113 53.3361 134.082 53.3845C134.052 53.4329 134.005 53.4687 133.95 53.4856C133.844 53.5145 133.736 53.5297 133.626 53.5307C133.114 53.5313 132.603 53.4955 132.097 53.4238C131.59 53.3508 131.079 53.3145 130.567 53.3153C129.989 53.3149 129.411 53.3511 128.838 53.4238C128.264 53.4952 127.686 53.5309 127.108 53.5307C126.955 53.5253 126.803 53.4942 126.66 53.4389C126.58 53.4103 126.51 53.3562 126.463 53.2848C126.416 53.2134 126.393 53.1285 126.398 53.0431C126.404 52.9576 126.437 52.8761 126.492 52.8111C126.548 52.746 126.623 52.7009 126.707 52.6825C126.912 52.6308 127.139 52.579 127.387 52.5272C127.639 52.4736 127.883 52.3854 128.111 52.2651C128.237 52.1908 128.344 52.0875 128.422 51.9638C128.5 51.8401 128.547 51.6996 128.56 51.5538C128.642 51.1463 128.693 50.7334 128.714 50.3183C128.734 49.9075 128.746 49.4951 128.746 49.0827C128.746 48.2802 128.74 47.5389 128.729 46.8587C128.718 46.1786 128.711 45.439 128.707 44.6398C128.707 44.3726 128.707 44.0955 128.692 43.8049C128.685 43.5294 128.629 43.2574 128.525 43.0018C128.462 42.7826 128.333 42.5883 128.155 42.4458C128.003 42.33 127.843 42.2261 127.675 42.1353C127.522 42.0535 127.377 41.9683 127.243 41.8882C127.178 41.8491 127.123 41.7952 127.083 41.7307C127.043 41.6662 127.019 41.5932 127.013 41.5175C127.054 41.4128 127.13 41.3255 127.228 41.2704C127.331 41.2086 127.423 41.1569 127.507 41.1151C127.712 41.0133 127.913 40.9097 128.108 40.8062C128.303 40.7027 128.505 40.5908 128.711 40.4723C128.885 40.3732 129.053 40.2616 129.212 40.1384L129.768 39.7059C129.942 39.5596 130.124 39.4231 130.313 39.2969C130.465 39.1967 130.636 39.1285 130.814 39.0965C130.84 39.0862 130.867 39.0821 130.894 39.0848C130.921 39.0874 130.947 39.0966 130.97 39.1115C131.008 39.1411 131.05 39.1668 131.093 39.1883C131.143 39.3064 131.174 39.4314 131.185 39.559C131.207 39.7435 131.217 39.9292 131.217 40.115V41.0734C131.237 40.9916 131.384 40.8463 131.649 40.6409C131.972 40.3993 132.313 40.1822 132.668 39.9914C133.104 39.7547 133.558 39.5532 134.027 39.3887C134.503 39.2177 135.004 39.1291 135.509 39.1266C135.898 39.1126 136.285 39.1922 136.636 39.3586C136.918 39.4997 137.165 39.6995 137.363 39.9447C137.546 40.1772 137.677 40.4458 137.748 40.7328C137.817 41.008 137.851 41.2907 137.85 41.5743Z" fill="#1D1D1B"/>
<path d="M4.9706 58.5917C5.26237 58.5875 5.5535 58.62 5.83715 58.6885C6.1294 58.7675 6.4175 58.8611 6.70036 58.969V58.3579H6.96751V61.3817H6.70036V59.6385C6.25062 59.1892 5.65193 58.9202 5.01735 58.8822H4.87209C4.51685 58.8792 4.17014 58.991 3.88365 59.2011C3.53694 59.4696 3.26406 59.8218 3.09056 60.2246C2.88581 60.663 2.73822 61.126 2.65144 61.6021C2.55385 62.1328 2.49802 62.6704 2.48448 63.2099C2.50256 63.3068 2.51039 63.4053 2.50785 63.5038C2.51405 64.2509 2.57994 64.9962 2.70487 65.7328C2.8022 66.3166 3.04574 66.8663 3.41281 67.3307C3.76232 67.7759 4.27045 68.0236 4.9372 68.0737C5.02255 68.0728 5.10787 68.0773 5.19266 68.087L5.41139 68.1104C6.14427 68.1071 6.85296 67.8478 7.41498 67.3774V67.8065C6.75557 68.1602 6.0194 68.3465 5.27114 68.3491C4.64755 68.3514 4.03138 68.2139 3.4679 67.9468C2.91391 67.6909 2.42008 67.3211 2.01864 66.8615C1.60703 66.4055 1.28425 65.8766 1.06694 65.302C0.669276 64.2359 0.635595 63.0681 0.971143 61.9808C1.30669 60.8936 1.99261 59.9479 2.92193 59.2912C3.51344 58.8469 4.23083 58.6019 4.9706 58.5917Z" fill="#1D1D1B"/>
<path d="M10.2067 64.3818V64.831C10.6148 64.5596 11.0959 64.4192 11.5859 64.4286C11.9813 64.4467 12.3681 64.5504 12.7196 64.7325C12.8808 64.8037 13.0175 64.9209 13.1125 65.0693C13.2076 65.2178 13.2567 65.391 13.2538 65.5673V67.5041C13.2538 67.838 13.339 68.03 13.511 68.0551C13.7031 68.0197 13.883 67.9358 14.0336 67.8113L14.1805 67.9332C13.8112 68.2019 13.3682 68.3505 12.9116 68.359C12.7431 68.3757 12.5735 68.3415 12.4247 68.2608C12.2759 68.1801 12.1547 68.0567 12.0767 67.9065C11.9404 68.0641 11.7717 68.1904 11.5821 68.2768C11.3925 68.3632 11.1865 68.4078 10.9781 68.4074C10.5761 68.4113 10.1866 68.2682 9.8828 68.005C9.74026 67.8941 9.62537 67.7516 9.54716 67.5888C9.46894 67.426 9.42952 67.2473 9.43199 67.0667V66.9815C9.43611 66.798 9.48743 66.6186 9.58102 66.4607C9.6746 66.3028 9.80729 66.1716 9.96629 66.0799C10.3109 65.8819 10.7026 65.7809 11.1 65.7877C11.4211 65.7838 11.7357 65.8782 12.0016 66.0582V65.3369C12.0016 64.9295 11.853 64.7141 11.5525 64.6907C11.4838 64.6824 11.4146 64.6779 11.3454 64.6774C11.0956 64.6792 10.8508 64.7472 10.6358 64.8744C10.3453 65.0414 10.1984 65.2467 10.1984 65.4821V65.6157H10.003V64.3868L10.2067 64.3818ZM12.0099 67.5008V66.7578C12.0182 66.5544 11.9496 66.3553 11.8179 66.2001C11.7408 66.1243 11.6487 66.0655 11.5475 66.0276C11.4462 65.9896 11.3381 65.9733 11.2302 65.9797C10.8746 65.9797 10.6842 66.3036 10.6592 66.9548V67.0132C10.6514 67.2908 10.7085 67.5664 10.8262 67.818C10.8667 67.9245 10.9384 68.0164 11.0319 68.0816C11.1255 68.1468 11.2364 68.1824 11.3504 68.1837C11.4415 68.1823 11.5312 68.1609 11.6131 68.1211C11.695 68.0813 11.7672 68.024 11.8246 67.9532C11.9387 67.8295 12.0045 67.6689 12.0099 67.5008Z" fill="#1D1D1B"/>
<path d="M20.567 65.382L20.7022 65.1616C21.074 64.6719 21.5192 64.4275 22.0379 64.4286C22.4665 64.4286 22.7832 64.5672 22.988 64.8444C23.2041 65.1632 23.3112 65.5433 23.2935 65.928V68.157H23.938V68.349H21.4335V68.152H22.0546V66.0632C22.0617 65.783 22.0365 65.5029 21.9795 65.2284C21.9635 65.1386 21.9178 65.0569 21.8496 64.9963C21.7814 64.9357 21.6949 64.8998 21.6038 64.8945H21.5287C21.4007 64.9006 21.2769 64.9413 21.1702 65.0121C21.0634 65.0829 20.9779 65.1813 20.9226 65.2969C20.7353 65.588 20.6372 65.9275 20.6404 66.2736V68.147H21.2849V68.349H18.7804V68.152H19.3765V65.7326C19.3765 65.2551 19.2429 64.9863 18.9724 64.9295C18.942 64.9211 18.9105 64.9167 18.8789 64.9162C18.6563 64.9162 18.4649 65.0626 18.3046 65.3553C18.1202 65.683 18.0241 66.0529 18.0257 66.4289V68.157H18.6585V68.349H16.1541V68.152H16.7752V64.7826H16.1541V64.5622C16.2604 64.5601 16.3666 64.5685 16.4713 64.5873C16.9918 64.5754 17.51 64.5145 18.0191 64.4053V65.382L18.1059 65.2151C18.4632 64.6952 18.9084 64.4353 19.4416 64.4353C19.7062 64.4316 19.9625 64.5276 20.1596 64.7041C20.3718 64.8744 20.5162 65.1148 20.567 65.382Z" fill="#1D1D1B"/>
<path d="M28.1104 68.1572H28.7549V68.3492H26.2504V68.1522H26.8848V64.8095H26.2504V64.5874C26.3534 64.5853 26.4564 64.5943 26.5576 64.6141C27.0776 64.5934 27.5952 64.5315 28.1054 64.4288L28.1104 68.1572ZM27.3657 64.539L27.0618 62.7124H27.6846L27.3657 64.539Z" fill="#1D1D1B"/>
<path d="M31.3046 68.0235L31.2578 68.0002V68.4527H31.0608V66.8782H31.2578V67.0451C31.2532 67.197 31.2806 67.3482 31.3381 67.4888C31.3956 67.6295 31.482 67.7565 31.5917 67.8616C31.7867 68.0763 32.0571 68.2073 32.3464 68.2272C32.7138 68.1538 32.8974 68.0119 32.8974 67.8015C32.9022 67.6898 32.8789 67.5787 32.8296 67.4783C32.7803 67.378 32.7066 67.2916 32.6152 67.2271C32.4204 67.0902 32.116 66.8999 31.7019 66.6561C31.5346 66.5539 31.3963 66.4104 31.3004 66.2393C31.2045 66.0683 31.1542 65.8755 31.1543 65.6794C31.16 65.5034 31.2018 65.3306 31.277 65.1715C31.3523 65.0123 31.4594 64.8704 31.5917 64.7544C31.8547 64.5256 32.1952 64.4061 32.5434 64.4204H32.7104C32.9833 64.4709 33.2461 64.5657 33.4885 64.7009L33.587 64.751V64.3486H33.784V65.7511H33.587L33.5636 65.4439C33.5589 65.3234 33.5262 65.2057 33.4683 65.1C33.4103 64.9942 33.3287 64.9033 33.2297 64.8345C33.0491 64.7146 32.837 64.6513 32.6203 64.6525H32.5485C32.4159 64.6482 32.2863 64.6915 32.1828 64.7744C32.0923 64.8511 32.0353 64.9601 32.0242 65.0783C32.0583 65.2294 32.1389 65.366 32.2546 65.469C32.353 65.5703 32.4654 65.6569 32.5885 65.7261C32.6937 65.7829 32.864 65.8714 33.1011 65.9916C33.6788 66.2532 33.9677 66.6233 33.9677 67.1019C33.9664 67.3337 33.8935 67.5593 33.759 67.7481C33.6172 67.9561 33.4247 68.1244 33.1996 68.2373C32.9776 68.3559 32.7301 68.4189 32.4783 68.4209C32.0544 68.4189 31.6426 68.2795 31.3046 68.0235Z" fill="#1D1D1B"/>
<path d="M36.6926 64.3818V64.831C37.1001 64.5598 37.5806 64.4195 38.07 64.4286C38.4655 64.4465 38.8523 64.5502 39.2037 64.7325C39.3653 64.8034 39.5024 64.9205 39.5977 65.069C39.693 65.2175 39.7424 65.3908 39.7397 65.5673V67.5041C39.7397 67.8458 39.8249 68.0295 39.9952 68.0551C40.1878 68.0198 40.3683 67.9359 40.5194 67.8113L40.6647 67.9332C40.2961 68.202 39.8536 68.3507 39.3974 68.359C39 68.359 38.7245 68.2081 38.5709 67.9065C38.4344 68.0639 38.2657 68.1901 38.0761 68.2765C37.8866 68.3629 37.6806 68.4076 37.4723 68.4074C37.0703 68.4113 36.6808 68.2682 36.377 68.005C36.2342 67.8942 36.119 67.7518 36.0404 67.589C35.9619 67.4262 35.9223 67.2474 35.9245 67.0667V66.9815C35.9287 66.7978 35.9802 66.6182 36.0741 66.4603C36.168 66.3023 36.3011 66.1713 36.4605 66.0799C36.8051 65.8819 37.1968 65.7809 37.5942 65.7877C37.9153 65.7838 38.2299 65.8782 38.4958 66.0582V65.3369C38.4958 64.9295 38.3461 64.7141 38.0467 64.6907C37.9774 64.6824 37.9077 64.6779 37.838 64.6774C37.5887 64.6795 37.3445 64.7475 37.13 64.8744C36.8384 65.0447 36.6926 65.2473 36.6926 65.4821V65.6157H36.4956V64.3868L36.6926 64.3818ZM38.4958 67.5008V66.7578C38.5034 66.5542 38.4343 66.3552 38.3021 66.2001C38.2255 66.1242 38.1336 66.0653 38.0326 66.0273C37.9316 65.9893 37.8238 65.9731 37.7161 65.9797C37.3588 65.9797 37.1684 66.3036 37.1451 66.9548V67.0132C37.138 67.2908 37.1952 67.5662 37.312 67.818C37.3528 67.9244 37.4245 68.0161 37.518 68.0813C37.6115 68.1465 37.7223 68.1822 37.8363 68.1837C37.9274 68.1824 38.0171 68.1611 38.099 68.1212C38.181 68.0814 38.2532 68.0241 38.3105 67.9532C38.4243 67.8294 38.49 67.6689 38.4958 67.5008Z" fill="#1D1D1B"/>
<path d="M44.5531 65.429C44.8871 64.7778 45.2728 64.4522 45.7102 64.4522C45.8083 64.449 45.9063 64.4574 46.0024 64.4772V64.1851H46.1861V66.0517H46.0024L45.979 65.8063C45.979 65.3611 45.8488 65.1095 45.5883 65.0516C45.529 65.0356 45.4678 65.0272 45.4063 65.0266C45.2905 65.0339 45.1787 65.0717 45.0822 65.1363C44.9857 65.2008 44.908 65.2896 44.857 65.3939C44.6546 65.7095 44.549 66.0775 44.5531 66.4525V68.1572H45.211V68.3492H42.6631V68.1522H43.3092V64.7594H42.6631V64.5273C42.8584 64.5273 42.997 64.5273 43.0655 64.539C43.5644 64.5063 44.0611 64.4456 44.5531 64.357V65.429Z" fill="#1D1D1B"/>
<path d="M50.4289 68.1572H51.075V68.3492H48.5705V68.1522H49.2016V64.8095H48.5688V64.5874C48.6714 64.5853 48.7738 64.5942 48.8744 64.6141C49.3944 64.5934 49.912 64.5315 50.4222 64.4288L50.4289 68.1572ZM49.6858 64.539L49.382 62.7124H50.0031L49.6858 64.539Z" fill="#1D1D1B"/>
<path d="M54.1237 64.3818V64.831C54.5313 64.5598 55.0118 64.4195 55.5012 64.4286C55.8967 64.4465 56.2835 64.5502 56.6349 64.7325C56.7965 64.8034 56.9335 64.9205 57.0289 65.069C57.1242 65.2175 57.1736 65.3908 57.1709 65.5673V67.5041C57.1709 67.8458 57.256 68.0295 57.4263 68.0551C57.619 68.0198 57.7994 67.9359 57.9506 67.8113L58.0958 67.9332C57.7272 68.202 57.2847 68.3507 56.8286 68.359C56.4312 68.359 56.1557 68.2081 56.0021 67.9065C55.8656 68.0639 55.6968 68.1901 55.5073 68.2765C55.3177 68.3629 55.1118 68.4076 54.9035 68.4074C54.5015 68.4113 54.112 68.2682 53.8082 68.005C53.6653 67.8942 53.5501 67.7518 53.4716 67.589C53.3931 67.4262 53.3534 67.2474 53.3557 67.0667V66.9815C53.3598 66.7978 53.4113 66.6182 53.5052 66.4603C53.5991 66.3023 53.7322 66.1713 53.8916 66.0799C54.2362 65.8819 54.628 65.7809 55.0253 65.7877C55.3464 65.7838 55.661 65.8782 55.927 66.0582V65.3369C55.927 64.9295 55.7772 64.7141 55.4778 64.6907C55.4086 64.6824 55.3389 64.6779 55.2691 64.6774C55.0199 64.6795 54.7757 64.7475 54.5612 64.8744C54.2695 65.0447 54.1237 65.2473 54.1237 65.4821V65.6157H53.9267V64.3868L54.1237 64.3818ZM55.927 67.5008V66.7578C55.9345 66.5542 55.8654 66.3552 55.7333 66.2001C55.6566 66.1242 55.5648 66.0653 55.4638 66.0273C55.3628 65.9893 55.2549 65.9731 55.1472 65.9797C54.7899 65.9797 54.5996 66.3036 54.5762 66.9548V67.0132C54.5692 67.2908 54.6263 67.5662 54.7432 67.818C54.7839 67.9244 54.8557 68.0161 54.9492 68.0813C55.0426 68.1465 55.1535 68.1822 55.2674 68.1837C55.3585 68.1824 55.4482 68.1611 55.5302 68.1212C55.6121 68.0814 55.6843 68.0241 55.7416 67.9532C55.8554 67.8294 55.9212 67.6689 55.927 67.5008Z" fill="#1D1D1B"/>
<path d="M64.7296 65.1768C64.7269 64.923 64.7998 64.6741 64.9389 64.4617C65.078 64.2494 65.277 64.0831 65.5108 63.9842C65.7445 63.8852 66.0024 63.8579 66.2517 63.9058C66.501 63.9537 66.7305 64.0746 66.9109 64.2532C67.0913 64.4317 67.2146 64.6599 67.2651 64.9086C67.3157 65.1574 67.2911 65.4156 67.1946 65.6504C67.098 65.8852 66.9339 66.086 66.723 66.2273C66.5122 66.3686 66.264 66.4441 66.0102 66.4441C65.8426 66.4461 65.6763 66.4147 65.5209 66.3519C65.3655 66.2891 65.2241 66.1961 65.1049 66.0782C64.9858 65.9603 64.8913 65.8199 64.8268 65.6651C64.7624 65.5104 64.7293 65.3444 64.7296 65.1768Z" fill="#1D1D1B"/>
<path d="M75.1697 68.0988H75.2916V68.3493H72.6736V68.0988H72.7721C72.9421 68.1016 73.1101 68.0616 73.2606 67.9826C73.4112 67.9035 73.5394 67.7879 73.6336 67.6464C73.8641 67.3211 74.0457 66.9639 74.1729 66.5861L77.0114 58.5918H77.1934L80.7681 68.0988H81.5345V68.3493H78.1701V68.0988H79.0884L77.6158 64.4807H75.2482L74.4918 66.6362C74.427 66.8481 74.3784 67.0647 74.3466 67.284C74.3635 67.5039 74.4582 67.7105 74.6137 67.8668C74.6859 67.941 74.7724 67.9998 74.868 68.0397C74.9635 68.0796 75.0662 68.0997 75.1697 68.0988ZM75.3183 64.2352H77.5356L76.3669 61.1881L75.3183 64.2352Z" fill="#1D1D1B"/>
<path d="M85.3732 58.5918V68.1573H86.006V68.3493H83.5299V68.1523H84.1293V58.9691H83.5299V58.7604C83.628 58.7567 83.7263 58.7657 83.8221 58.7871C84.3441 58.7704 84.8634 58.705 85.3732 58.5918Z" fill="#1D1D1B"/>
<path d="M91.11 64.0079H90.0114V68.349H88.7792V64.0079H88.4886V63.8075H88.7792V60.2128C88.7805 59.801 88.9285 59.4032 89.1966 59.0908C89.3136 58.9332 89.4663 58.8056 89.6422 58.7185C89.8181 58.6315 90.0121 58.5874 90.2084 58.5899C90.2809 58.5895 90.3534 58.5934 90.4255 58.6016C90.4934 58.6179 90.559 58.6426 90.6208 58.675C90.6882 58.7157 90.7579 58.7525 90.8295 58.7852L90.8896 58.8336V58.4663H91.085V60.7103H90.8896V60.1877C90.8896 59.4147 90.6943 58.9722 90.3036 58.852C90.2804 58.8442 90.2562 58.8402 90.2318 58.8403C90.2003 58.8394 90.1693 58.8485 90.1433 58.8662C90.1172 58.8838 90.0973 58.9093 90.0865 58.9388C90.0277 59.0688 89.9943 59.2087 89.988 59.3512C90.0047 59.4116 90.0125 59.474 90.0114 59.5366V63.8075H91.11V64.0079Z" fill="#1D1D1B"/>
<path d="M93.8801 64.382V64.8311C94.2881 64.5597 94.7693 64.4194 95.2592 64.4287C95.6546 64.4468 96.0414 64.5505 96.3929 64.7326C96.5542 64.8038 96.6909 64.921 96.7859 65.0695C96.8809 65.218 96.9301 65.3912 96.9272 65.5674V67.5042C96.9272 67.8382 97.0124 68.0302 97.1843 68.0552C97.3765 68.0199 97.5564 67.9359 97.7069 67.8114L97.8539 67.9333C97.4838 68.1981 97.0416 68.3432 96.5866 68.3491C96.1892 68.3491 95.9109 68.1982 95.7518 67.8966C95.6154 68.0542 95.4467 68.1805 95.2571 68.2669C95.0675 68.3533 94.8615 68.3979 94.6531 68.3975C94.2516 68.4018 93.8625 68.2586 93.5595 67.9951C93.4167 67.8843 93.3014 67.742 93.2229 67.5791C93.1444 67.4163 93.1047 67.2375 93.107 67.0568V66.9716C93.1111 66.7881 93.1625 66.6087 93.256 66.4508C93.3496 66.2929 93.4823 66.1617 93.6413 66.07C93.9864 65.8718 94.3788 65.7708 94.7767 65.7778C95.0977 65.7744 95.4121 65.8688 95.6783 66.0483V65.327C95.6783 64.9196 95.528 64.7042 95.2275 64.6808C95.1588 64.6725 95.0897 64.668 95.0204 64.6675C94.7707 64.6696 94.5259 64.7375 94.3108 64.8645C94.0203 65.0315 93.8734 65.2368 93.8734 65.4722V65.6058H93.678V64.377L93.8801 64.382ZM95.685 67.5009V66.7579C95.6926 66.5543 95.6234 66.3553 95.4913 66.2002C95.4145 66.1245 95.3227 66.0657 95.2217 66.0277C95.1207 65.9898 95.0129 65.9734 94.9052 65.9798C94.5479 65.9798 94.3576 66.3037 94.3326 66.9549V67.0133C94.3247 67.291 94.3819 67.5665 94.4995 67.8181C94.5401 67.9247 94.6118 68.0165 94.7053 68.0817C94.7988 68.147 94.9098 68.1825 95.0238 68.1838C95.1149 68.1824 95.2045 68.161 95.2865 68.1212C95.3684 68.0814 95.4406 68.0241 95.498 67.9534C95.6124 67.8297 95.6787 67.6692 95.685 67.5009Z" fill="#1D1D1B"/>
<path d="M101.998 68.1572H102.642V68.3492H100.138V68.1522H100.772V64.8095H100.138V64.5874C100.241 64.5853 100.344 64.5943 100.445 64.6141C100.965 64.5934 101.483 64.5315 101.993 64.4288L101.998 68.1572ZM101.253 64.539L100.949 62.7124H101.572L101.253 64.539Z" fill="#1D1D1B"/>
<path d="M105.691 64.3818V64.831C106.099 64.5596 106.58 64.4192 107.07 64.4286C107.466 64.4465 107.853 64.5502 108.204 64.7325C108.365 64.8037 108.502 64.9209 108.597 65.0693C108.692 65.2178 108.741 65.391 108.738 65.5673V67.5041C108.738 67.838 108.823 68.03 108.995 68.0551C109.188 68.0197 109.367 67.9358 109.518 67.8113L109.665 67.9332C109.296 68.2015 108.854 68.3502 108.398 68.359C108 68.359 107.722 68.2081 107.563 67.9065C107.426 68.0641 107.258 68.1904 107.068 68.2768C106.879 68.3632 106.673 68.4078 106.464 68.4074C106.063 68.4117 105.674 68.2685 105.371 68.005C105.228 67.8942 105.112 67.7518 105.034 67.589C104.955 67.4262 104.916 67.2474 104.918 67.0667V66.9815C104.922 66.798 104.973 66.6186 105.067 66.4607C105.161 66.3028 105.293 66.1716 105.452 66.0799C105.797 65.8817 106.19 65.7807 106.588 65.7877C106.909 65.7843 107.223 65.8787 107.489 66.0582V65.3369C107.489 64.9295 107.339 64.7141 107.039 64.6907C106.97 64.6824 106.901 64.6779 106.831 64.6774C106.582 64.6795 106.337 64.7474 106.122 64.8744C105.831 65.0414 105.684 65.2467 105.684 65.4821V65.6157H105.489V64.3868L105.691 64.3818ZM107.496 67.5008V66.7578C107.504 66.5542 107.434 66.3552 107.302 66.2001C107.226 66.1243 107.134 66.0656 107.033 66.0276C106.932 65.9896 106.824 65.9733 106.716 65.9797C106.359 65.9797 106.169 66.3036 106.144 66.9548V67.0132C106.136 67.2908 106.193 67.5664 106.311 67.818C106.352 67.9248 106.424 68.0166 106.518 68.0816C106.612 68.1465 106.724 68.1815 106.838 68.182C106.929 68.1806 107.019 68.1592 107.101 68.1194C107.183 68.0796 107.255 68.0223 107.312 67.9516C107.425 67.8279 107.49 67.6681 107.496 67.5008Z" fill="#1D1D1B"/>
<path d="M113.615 68.0501C113.71 68.0528 113.803 68.0272 113.883 67.9767C113.96 67.9337 114.03 67.8772 114.088 67.8097C114.153 67.7362 114.235 67.6427 114.332 67.5275L114.499 67.6644C114.308 67.8853 114.089 68.0811 113.849 68.2471C113.636 68.3626 113.396 68.4175 113.155 68.4058C112.654 68.4058 112.34 68.2755 112.201 68.0151C112.043 67.6584 111.965 67.2714 111.972 66.8814C111.987 66.8518 111.995 66.8193 111.996 66.7862V65.2618H111.677V65.0548H111.996V61.3364H113.203V65.0531H114.302V65.2601H113.203V67.4541C113.203 67.8531 113.33 68.0518 113.582 68.0518L113.615 68.0501Z" fill="#1D1D1B"/>
<path d="M117.197 64.3818V64.831C117.604 64.5598 118.085 64.4195 118.574 64.4286C118.97 64.4465 119.357 64.5502 119.708 64.7325C119.87 64.8034 120.007 64.9205 120.102 65.069C120.197 65.2175 120.247 65.3908 120.244 65.5673V67.5041C120.244 67.8458 120.329 68.0295 120.499 68.0551C120.692 68.0198 120.872 67.9359 121.024 67.8113L121.169 67.9332C120.8 68.202 120.358 68.3507 119.902 68.359C119.504 68.359 119.226 68.2081 119.067 67.9065C118.93 68.0639 118.762 68.1901 118.572 68.2765C118.382 68.3629 118.176 68.4076 117.968 68.4074C117.566 68.4116 117.176 68.2685 116.873 68.005C116.73 67.8942 116.615 67.7518 116.536 67.589C116.458 67.4262 116.418 67.2474 116.42 67.0667V66.9815C116.425 66.7978 116.476 66.6182 116.57 66.4603C116.664 66.3023 116.797 66.1713 116.956 66.0799C117.301 65.8817 117.693 65.7808 118.09 65.7877C118.411 65.7841 118.726 65.8785 118.992 66.0582V65.3369C118.992 64.9295 118.842 64.7141 118.543 64.6907C118.473 64.6824 118.404 64.6779 118.334 64.6774C118.085 64.6795 117.84 64.7475 117.626 64.8744C117.334 65.0447 117.188 65.2473 117.188 65.4821V65.6157H116.991V64.3868L117.197 64.3818ZM118.993 67.5008V66.7578C119.001 66.5542 118.932 66.3552 118.8 66.2001C118.723 66.1242 118.631 66.0653 118.53 66.0273C118.429 65.9893 118.321 65.9731 118.214 65.9797C117.856 65.9797 117.666 66.3036 117.643 66.9548V67.0132C117.636 67.2908 117.693 67.5662 117.81 67.818C117.851 67.9254 117.924 68.0177 118.019 68.0827C118.114 68.1477 118.227 68.1823 118.342 68.182C118.433 68.1806 118.523 68.1592 118.605 68.1194C118.687 68.0796 118.759 68.0223 118.816 67.9516C118.927 67.8269 118.989 67.6672 118.993 67.5008Z" fill="#1D1D1B"/>
<path d="M125.058 65.429C125.391 64.7778 125.777 64.4522 126.215 64.4522C126.313 64.449 126.411 64.4574 126.507 64.4772V64.1851H126.69V66.0517H126.507L126.483 65.8063C126.483 65.3611 126.353 65.1095 126.093 65.0516C126.033 65.0356 125.972 65.0272 125.911 65.0266C125.795 65.0339 125.683 65.0717 125.587 65.1363C125.49 65.2008 125.412 65.2896 125.361 65.3939C125.158 65.7092 125.053 66.0774 125.058 66.4525V68.1572H125.715V68.3492H123.167V68.1522H123.814V64.7594H123.167V64.5273C123.363 64.5273 123.501 64.5273 123.57 64.539C124.069 64.5063 124.565 64.4456 125.058 64.357V65.429Z" fill="#1D1D1B"/>
<path d="M130.933 68.1572H131.579V68.3492H129.075V68.1522H129.708V64.8095H129.075V64.5874C129.177 64.5853 129.28 64.5942 129.38 64.6141C129.9 64.5934 130.418 64.5315 130.928 64.4288L130.933 68.1572ZM130.19 64.539L129.886 62.7124H130.514L130.19 64.539Z" fill="#1D1D1B"/>
<path d="M134.628 64.3818V64.831C135.035 64.5598 135.516 64.4195 136.005 64.4286C136.401 64.4465 136.788 64.5502 137.139 64.7325C137.301 64.8034 137.438 64.9205 137.533 65.069C137.628 65.2175 137.678 65.3908 137.675 65.5673V67.5041C137.675 67.8458 137.76 68.0295 137.931 68.0551C138.123 68.0198 138.304 67.9359 138.455 67.8113L138.6 67.9332C138.231 68.202 137.789 68.3507 137.333 68.359C136.935 68.359 136.657 68.2081 136.498 67.9065C136.361 68.0639 136.193 68.1901 136.003 68.2765C135.814 68.3629 135.608 68.4076 135.399 68.4074C134.997 68.4113 134.608 68.2682 134.304 68.005C134.161 67.8942 134.046 67.7518 133.967 67.589C133.889 67.4262 133.849 67.2474 133.852 67.0667V66.9815C133.856 66.7978 133.907 66.6182 134.001 66.4603C134.095 66.3023 134.228 66.1713 134.387 66.0799C134.732 65.8819 135.124 65.7809 135.521 65.7877C135.842 65.7841 136.157 65.8785 136.423 66.0582V65.3369C136.423 64.9295 136.273 64.7141 135.974 64.6907C135.904 64.6824 135.835 64.6779 135.765 64.6774C135.516 64.6795 135.272 64.7475 135.057 64.8744C134.765 65.0447 134.62 65.2473 134.62 65.4821V65.6157H134.423V64.3868L134.628 64.3818ZM136.431 67.5008V66.7578C136.439 66.5542 136.37 66.3552 136.237 66.2001C136.161 66.1242 136.069 66.0653 135.968 66.0273C135.867 65.9893 135.759 65.9731 135.651 65.9797C135.294 65.9797 135.104 66.3036 135.08 66.9548V67.0132C135.073 67.2908 135.131 67.5662 135.247 67.818C135.288 67.9244 135.361 68.0159 135.454 68.0808C135.548 68.1457 135.659 68.181 135.773 68.182C135.864 68.1807 135.954 68.1594 136.036 68.1196C136.118 68.0798 136.19 68.0224 136.248 67.9516C136.361 67.8283 136.426 67.6682 136.431 67.5008Z" fill="#1D1D1B"/>
</svg>
