
<svg width="151" height="32" viewBox="0 0 151 32" fill="none" xmlns="http://www.w3.org/2000/svg">
<path d="M15.7904 15.712C15.8224 15.712 15.8384 15.76 15.8384 15.856C15.8384 15.952 15.8224 16 15.7904 16H12.6944C12.2944 16 11.5424 15.32 10.4384 13.96C9.35044 12.584 8.02244 10.672 6.45444 8.224C6.07044 8.336 5.63844 8.392 5.15844 8.392C4.85444 8.392 4.49444 8.376 4.07844 8.344V14.056C4.07844 14.552 4.12644 14.912 4.22244 15.136C4.31844 15.36 4.50244 15.512 4.77444 15.592C5.06244 15.672 5.51044 15.712 6.11844 15.712C6.16644 15.712 6.19044 15.76 6.19044 15.856C6.19044 15.952 6.16644 16 6.11844 16C5.62244 16 5.23044 15.992 4.94244 15.976L3.28644 15.952L1.65444 15.976C1.36644 15.992 0.958438 16 0.430438 16C0.398438 16 0.382438 15.952 0.382438 15.856C0.382438 15.76 0.398438 15.712 0.430438 15.712C1.03844 15.712 1.48644 15.672 1.77444 15.592C2.06244 15.496 2.26244 15.336 2.37444 15.112C2.48644 14.888 2.54244 14.536 2.54244 14.056V2.944C2.54244 2.464 2.48644 2.112 2.37444 1.888C2.27844 1.664 2.08644 1.512 1.79844 1.432C1.52644 1.336 1.08644 1.288 0.478438 1.288C0.430438 1.288 0.406438 1.24 0.406438 1.144C0.406438 1.048 0.430438 1 0.478438 1L1.65444 1.024C2.32644 1.056 2.87044 1.072 3.28644 1.072C3.57444 1.072 3.84644 1.064 4.10244 1.048C4.35844 1.032 4.58244 1.016 4.77444 1C5.28644 0.952 5.75044 0.927999 6.16644 0.927999C7.46244 0.927999 8.46244 1.192 9.16644 1.72C9.87044 2.248 10.2224 2.984 10.2224 3.928C10.2224 4.696 9.99844 5.424 9.55044 6.112C9.10244 6.784 8.51044 7.32 7.77444 7.72C9.13444 9.752 10.2784 11.344 11.2064 12.496C12.1344 13.632 12.9584 14.456 13.6784 14.968C14.3984 15.464 15.1024 15.712 15.7904 15.712ZM4.07844 7.744C4.47844 7.808 4.95044 7.84 5.49444 7.84C6.59844 7.84 7.39044 7.608 7.87044 7.144C8.35044 6.664 8.59044 5.872 8.59044 4.768C8.59044 2.448 7.61444 1.288 5.66244 1.288C5.23044 1.288 4.90244 1.328 4.67844 1.408C4.47044 1.472 4.31844 1.624 4.22244 1.864C4.12644 2.088 4.07844 2.464 4.07844 2.992V7.744ZM32.3229 15.712C32.3869 15.712 32.4189 15.76 32.4189 15.856C32.4189 15.952 32.3869 16 32.3229 16C32.0189 16 31.5469 15.984 30.9069 15.952C30.2669 15.92 29.8029 15.904 29.5149 15.904C29.1629 15.904 28.7149 15.92 28.1709 15.952C27.6589 15.984 27.2669 16 26.9949 16C26.9309 16 26.8989 15.952 26.8989 15.856C26.8989 15.76 26.9309 15.712 26.9949 15.712C27.5869 15.712 28.0189 15.656 28.2909 15.544C28.5629 15.432 28.6989 15.24 28.6989 14.968C28.6989 14.744 28.5949 14.4 28.3869 13.936L25.6269 8.056H21.0909L19.0269 12.952C18.8029 13.496 18.6909 13.944 18.6909 14.296C18.6909 15.24 19.4749 15.712 21.0429 15.712C21.1229 15.712 21.1629 15.76 21.1629 15.856C21.1629 15.952 21.1229 16 21.0429 16C20.7549 16 20.3389 15.984 19.7949 15.952C19.1869 15.92 18.6589 15.904 18.2109 15.904C17.7949 15.904 17.3149 15.92 16.7709 15.952C16.2909 15.984 15.8909 16 15.5709 16C15.4909 16 15.4509 15.952 15.4509 15.856C15.4509 15.76 15.4909 15.712 15.5709 15.712C16.0189 15.712 16.3949 15.632 16.6989 15.472C17.0189 15.296 17.3149 15 17.5869 14.584C17.8749 14.152 18.1869 13.536 18.5229 12.736L23.5869 0.784C23.6189 0.736 23.6749 0.711999 23.7549 0.711999C23.8349 0.711999 23.8829 0.736 23.8989 0.784L29.5629 12.712C30.1069 13.896 30.5709 14.696 30.9549 15.112C31.3389 15.512 31.7949 15.712 32.3229 15.712ZM21.3069 7.552H25.3869L23.2269 2.992L21.3069 7.552ZM45.2827 3.64C45.2827 2.072 44.5867 1.288 43.1947 1.288C43.1467 1.288 43.1227 1.24 43.1227 1.144C43.1227 1.048 43.1467 1 43.1947 1L44.2267 1.024C44.8027 1.056 45.2587 1.072 45.5947 1.072C45.8667 1.072 46.2587 1.056 46.7707 1.024L47.7787 1C47.8107 1 47.8267 1.048 47.8267 1.144C47.8267 1.24 47.8107 1.288 47.7787 1.288C46.4987 1.288 45.8587 2.072 45.8587 3.64V10.456C45.8587 12.296 45.3467 13.736 44.3227 14.776C43.2987 15.8 41.9227 16.312 40.1947 16.312C39.0107 16.312 37.9707 16.08 37.0747 15.616C36.1947 15.152 35.5067 14.496 35.0107 13.648C34.5307 12.784 34.2907 11.776 34.2907 10.624V2.944C34.2907 2.464 34.2427 2.112 34.1467 1.888C34.0507 1.664 33.8587 1.512 33.5707 1.432C33.2987 1.336 32.8587 1.288 32.2507 1.288C32.2187 1.288 32.2027 1.24 32.2027 1.144C32.2027 1.048 32.2187 1 32.2507 1L33.4267 1.024C34.0987 1.056 34.6427 1.072 35.0587 1.072C35.5067 1.072 36.0667 1.056 36.7387 1.024L37.8907 1C37.9387 1 37.9627 1.048 37.9627 1.144C37.9627 1.24 37.9387 1.288 37.8907 1.288C37.2987 1.288 36.8587 1.336 36.5707 1.432C36.2827 1.528 36.0907 1.696 35.9947 1.936C35.8987 2.16 35.8507 2.512 35.8507 2.992V9.784C35.8507 11.656 36.2747 13.096 37.1227 14.104C37.9867 15.096 39.1867 15.592 40.7227 15.592C42.1627 15.592 43.2827 15.144 44.0827 14.248C44.8827 13.336 45.2827 12.08 45.2827 10.48V3.64ZM52.7525 13.96C52.7525 14.424 52.8005 14.76 52.8965 14.968C52.9925 15.176 53.1685 15.32 53.4245 15.4C53.6805 15.464 54.0965 15.496 54.6725 15.496H57.2885C58.2005 15.496 58.9285 15.216 59.4725 14.656C60.0165 14.096 60.3765 13.32 60.5525 12.328C60.5525 12.28 60.5925 12.264 60.6725 12.28C60.7685 12.28 60.8165 12.304 60.8165 12.352C60.6725 13.68 60.6005 14.776 60.6005 15.64C60.6005 15.768 60.5765 15.864 60.5285 15.928C60.4805 15.976 60.3845 16 60.2405 16H49.1525C49.1205 16 49.1045 15.952 49.1045 15.856C49.1045 15.76 49.1205 15.712 49.1525 15.712C49.7605 15.712 50.2005 15.672 50.4725 15.592C50.7605 15.512 50.9525 15.36 51.0485 15.136C51.1445 14.896 51.1925 14.536 51.1925 14.056V2.944C51.1925 2.464 51.1445 2.112 51.0485 1.888C50.9525 1.664 50.7605 1.512 50.4725 1.432C50.2005 1.336 49.7605 1.288 49.1525 1.288C49.1205 1.288 49.1045 1.24 49.1045 1.144C49.1045 1.048 49.1205 1 49.1525 1L50.3285 1.024C51.0005 1.056 51.5445 1.072 51.9605 1.072C52.4085 1.072 52.9685 1.056 53.6405 1.024L54.7925 1C54.8405 1 54.8645 1.048 54.8645 1.144C54.8645 1.24 54.8405 1.288 54.7925 1.288C54.2005 1.288 53.7605 1.336 53.4725 1.432C53.2005 1.512 53.0085 1.672 52.8965 1.912C52.8005 2.136 52.7525 2.488 52.7525 2.968V13.96ZM74.0064 16.096C73.5424 16.096 73.0064 16.072 72.3984 16.024C72.1744 16.008 71.8864 15.992 71.5344 15.976C71.1984 15.96 70.8224 15.952 70.4064 15.952L68.7744 15.976C68.4864 15.992 68.0864 16 67.5744 16C67.5424 16 67.5264 15.952 67.5264 15.856C67.5264 15.76 67.5424 15.712 67.5744 15.712C68.1824 15.712 68.6224 15.672 68.8944 15.592C69.1824 15.512 69.3744 15.36 69.4704 15.136C69.5824 14.896 69.6384 14.536 69.6384 14.056V2.944C69.6384 2.464 69.5904 2.112 69.4944 1.888C69.3984 1.664 69.2064 1.512 68.9184 1.432C68.6464 1.336 68.2064 1.288 67.5984 1.288C67.5664 1.288 67.5504 1.24 67.5504 1.144C67.5504 1.048 67.5664 1 67.5984 1L68.7984 1.024C69.4704 1.056 70.0064 1.072 70.4064 1.072C71.0144 1.072 71.6144 1.048 72.2064 1C72.9104 0.967999 73.3984 0.951999 73.6704 0.951999C75.3344 0.951999 76.8064 1.272 78.0864 1.912C79.3664 2.552 80.3584 3.424 81.0624 4.528C81.7824 5.632 82.1424 6.872 82.1424 8.248C82.1424 9.8 81.7744 11.176 81.0384 12.376C80.3184 13.56 79.3344 14.48 78.0864 15.136C76.8384 15.776 75.4784 16.096 74.0064 16.096ZM73.7664 15.736C75.0464 15.736 76.1824 15.472 77.1744 14.944C78.1664 14.4 78.9344 13.608 79.4784 12.568C80.0384 11.512 80.3184 10.248 80.3184 8.776C80.3184 7.384 80.0544 6.12 79.5264 4.984C78.9984 3.848 78.2464 2.952 77.2704 2.296C76.2944 1.64 75.1664 1.312 73.8864 1.312C73.1984 1.312 72.6624 1.352 72.2784 1.432C71.9104 1.512 71.6384 1.672 71.4624 1.912C71.2864 2.152 71.1984 2.512 71.1984 2.992V13.792C71.1984 14.272 71.2624 14.648 71.3904 14.92C71.5344 15.192 71.7904 15.4 72.1584 15.544C72.5424 15.672 73.0784 15.736 73.7664 15.736ZM97.0561 3.64C97.0561 2.072 96.3601 1.288 94.9681 1.288C94.9201 1.288 94.8961 1.24 94.8961 1.144C94.8961 1.048 94.9201 1 94.9681 1L96.0001 1.024C96.5761 1.056 97.0321 1.072 97.3681 1.072C97.6401 1.072 98.0321 1.056 98.5441 1.024L99.5521 1C99.5841 1 99.6001 1.048 99.6001 1.144C99.6001 1.24 99.5841 1.288 99.5521 1.288C98.2721 1.288 97.6321 2.072 97.6321 3.64V10.456C97.6321 12.296 97.1201 13.736 96.0961 14.776C95.0721 15.8 93.6961 16.312 91.9681 16.312C90.7841 16.312 89.7441 16.08 88.8481 15.616C87.9681 15.152 87.2801 14.496 86.7841 13.648C86.3041 12.784 86.0641 11.776 86.0641 10.624V2.944C86.0641 2.464 86.0161 2.112 85.9201 1.888C85.8241 1.664 85.6321 1.512 85.3441 1.432C85.0721 1.336 84.6321 1.288 84.0241 1.288C83.9921 1.288 83.9761 1.24 83.9761 1.144C83.9761 1.048 83.9921 1 84.0241 1L85.2001 1.024C85.8721 1.056 86.4161 1.072 86.8321 1.072C87.2801 1.072 87.8401 1.056 88.5121 1.024L89.6641 1C89.7121 1 89.7361 1.048 89.7361 1.144C89.7361 1.24 89.7121 1.288 89.6641 1.288C89.0721 1.288 88.6321 1.336 88.3441 1.432C88.0561 1.528 87.8641 1.696 87.7681 1.936C87.6721 2.16 87.6241 2.512 87.6241 2.992V9.784C87.6241 11.656 88.0481 13.096 88.8961 14.104C89.7601 15.096 90.9601 15.592 92.4961 15.592C93.9361 15.592 95.0561 15.144 95.8561 14.248C96.6561 13.336 97.0561 12.08 97.0561 10.48V3.64ZM108.054 7.552C109.318 7.648 110.334 8.072 111.102 8.824C111.886 9.56 112.278 10.48 112.278 11.584C112.278 12.432 112.07 13.2 111.654 13.888C111.238 14.576 110.662 15.12 109.926 15.52C109.206 15.904 108.398 16.096 107.502 16.096C106.974 16.096 106.398 16.072 105.774 16.024C105.55 16.008 105.286 15.992 104.982 15.976C104.678 15.96 104.342 15.952 103.974 15.952L102.342 15.976C102.054 15.992 101.646 16 101.118 16C101.086 16 101.07 15.952 101.07 15.856C101.07 15.76 101.086 15.712 101.118 15.712C101.726 15.712 102.174 15.672 102.462 15.592C102.75 15.496 102.95 15.336 103.062 15.112C103.174 14.888 103.23 14.536 103.23 14.056V2.944C103.23 2.464 103.174 2.112 103.062 1.888C102.966 1.664 102.774 1.512 102.486 1.432C102.198 1.336 101.758 1.288 101.166 1.288C101.118 1.288 101.094 1.24 101.094 1.144C101.094 1.048 101.118 1 101.166 1L102.342 1.024C103.014 1.056 103.558 1.072 103.974 1.072C104.262 1.072 104.526 1.064 104.766 1.048C105.022 1.032 105.238 1.016 105.414 1C105.91 0.952 106.374 0.927999 106.806 0.927999C108.15 0.927999 109.158 1.224 109.83 1.816C110.502 2.392 110.838 3.152 110.838 4.096C110.838 4.864 110.59 5.552 110.094 6.16C109.598 6.752 108.918 7.216 108.054 7.552ZM106.278 1.288C105.862 1.288 105.55 1.32 105.342 1.384C105.15 1.448 105.006 1.6 104.91 1.84C104.814 2.08 104.766 2.464 104.766 2.992V7.552L105.846 7.576C107.014 7.576 107.878 7.28 108.438 6.688C108.998 6.08 109.278 5.28 109.278 4.288C109.278 3.392 109.03 2.672 108.534 2.128C108.054 1.568 107.302 1.288 106.278 1.288ZM107.142 15.664C108.31 15.664 109.174 15.368 109.734 14.776C110.31 14.168 110.598 13.304 110.598 12.184C110.598 10.968 110.238 9.984 109.518 9.232C108.814 8.48 107.838 8.096 106.59 8.08C106.078 8.064 105.47 8.08 104.766 8.128V14.056C104.766 14.472 104.822 14.792 104.934 15.016C105.062 15.24 105.294 15.408 105.63 15.52C105.982 15.616 106.486 15.664 107.142 15.664ZM122.253 16.288C120.765 16.288 119.437 15.944 118.269 15.256C117.117 14.552 116.221 13.608 115.581 12.424C114.957 11.224 114.645 9.92 114.645 8.512C114.645 6.864 115.061 5.456 115.893 4.288C116.725 3.104 117.789 2.216 119.085 1.624C120.397 1.032 121.733 0.735999 123.093 0.735999C124.613 0.735999 125.949 1.096 127.101 1.816C128.253 2.52 129.133 3.456 129.741 4.624C130.365 5.792 130.677 7.032 130.677 8.344C130.677 9.8 130.293 11.136 129.525 12.352C128.757 13.568 127.725 14.528 126.429 15.232C125.149 15.936 123.757 16.288 122.253 16.288ZM123.093 15.784C124.181 15.784 125.157 15.52 126.021 14.992C126.901 14.464 127.589 13.688 128.085 12.664C128.597 11.64 128.853 10.424 128.853 9.016C128.853 7.512 128.573 6.176 128.013 5.008C127.453 3.84 126.661 2.928 125.637 2.272C124.629 1.616 123.445 1.288 122.085 1.288C120.325 1.288 118.949 1.856 117.957 2.992C116.965 4.128 116.469 5.688 116.469 7.672C116.469 9.176 116.749 10.552 117.309 11.8C117.869 13.032 118.653 14.008 119.661 14.728C120.669 15.432 121.813 15.784 123.093 15.784ZM136.62 14.056C136.62 14.536 136.668 14.896 136.764 15.136C136.86 15.36 137.044 15.512 137.316 15.592C137.604 15.672 138.052 15.712 138.66 15.712C138.708 15.712 138.732 15.76 138.732 15.856C138.732 15.952 138.708 16 138.66 16C138.18 16 137.796 15.992 137.508 15.976L135.804 15.952L134.148 15.976C133.86 15.992 133.468 16 132.972 16C132.924 16 132.9 15.952 132.9 15.856C132.9 15.76 132.924 15.712 132.972 15.712C133.58 15.712 134.02 15.672 134.292 15.592C134.58 15.512 134.772 15.36 134.868 15.136C134.98 14.896 135.036 14.536 135.036 14.056V2.944C135.036 2.464 134.98 2.112 134.868 1.888C134.772 1.664 134.58 1.512 134.292 1.432C134.02 1.336 133.58 1.288 132.972 1.288C132.924 1.288 132.9 1.24 132.9 1.144C132.9 1.048 132.924 1 132.972 1L134.148 1.024C134.82 1.056 135.372 1.072 135.804 1.072C136.284 1.072 136.86 1.056 137.532 1.024L138.66 1C138.708 1 138.732 1.048 138.732 1.144C138.732 1.24 138.708 1.288 138.66 1.288C138.068 1.288 137.628 1.336 137.34 1.432C137.068 1.528 136.876 1.696 136.764 1.936C136.668 2.16 136.62 2.512 136.62 2.992V14.056ZM143.293 3.808C143.293 4.432 143.445 4.976 143.749 5.44C144.053 5.904 144.421 6.296 144.853 6.616C145.285 6.92 145.893 7.312 146.677 7.792C147.509 8.288 148.157 8.704 148.621 9.04C149.085 9.376 149.477 9.808 149.797 10.336C150.133 10.848 150.301 11.464 150.301 12.184C150.301 12.952 150.109 13.648 149.725 14.272C149.341 14.896 148.773 15.392 148.021 15.76C147.285 16.112 146.397 16.288 145.357 16.288C144.125 16.288 142.997 16.008 141.973 15.448C141.893 15.4 141.837 15.344 141.805 15.28C141.789 15.216 141.773 15.12 141.757 14.992L141.445 11.728C141.429 11.664 141.461 11.624 141.541 11.608C141.637 11.592 141.693 11.616 141.709 11.68C141.965 12.832 142.437 13.824 143.125 14.656C143.829 15.488 144.757 15.904 145.909 15.904C146.709 15.904 147.381 15.688 147.925 15.256C148.485 14.808 148.765 14.104 148.765 13.144C148.765 12.424 148.605 11.8 148.285 11.272C147.965 10.744 147.573 10.312 147.109 9.976C146.661 9.624 146.045 9.216 145.261 8.752C144.493 8.288 143.885 7.888 143.437 7.552C143.005 7.216 142.637 6.792 142.333 6.28C142.029 5.768 141.877 5.168 141.877 4.48C141.877 3.68 142.085 3 142.501 2.44C142.933 1.864 143.485 1.44 144.157 1.168C144.845 0.879999 145.573 0.735999 146.341 0.735999C147.285 0.735999 148.221 0.927999 149.149 1.312C149.389 1.392 149.509 1.528 149.509 1.72L149.677 4.48C149.677 4.544 149.637 4.576 149.557 4.576C149.477 4.576 149.429 4.544 149.413 4.48C149.285 3.648 148.941 2.88 148.381 2.176C147.821 1.456 147.013 1.096 145.957 1.096C145.061 1.096 144.389 1.36 143.941 1.888C143.509 2.4 143.293 3.04 143.293 3.808ZM20.0991 25H19.0423C18.9798 24.696 18.8704 24.429 18.7141 24.1989C18.5607 23.9688 18.3732 23.7756 18.1516 23.6193C17.9329 23.4602 17.69 23.3409 17.4229 23.2614C17.1559 23.1818 16.8775 23.142 16.5877 23.142C16.0593 23.142 15.5806 23.2756 15.1516 23.5426C14.7255 23.8097 14.386 24.2031 14.1332 24.723C13.8832 25.2429 13.7582 25.8807 13.7582 26.6364C13.7582 27.392 13.8832 28.0298 14.1332 28.5497C14.386 29.0696 14.7255 29.4631 15.1516 29.7301C15.5806 29.9972 16.0593 30.1307 16.5877 30.1307C16.8775 30.1307 17.1559 30.0909 17.4229 30.0114C17.69 29.9318 17.9329 29.8139 18.1516 29.6577C18.3732 29.4986 18.5607 29.304 18.7141 29.0739C18.8704 28.8409 18.9798 28.5739 19.0423 28.2727H20.0991C20.0195 28.7187 19.8746 29.1179 19.6644 29.4702C19.4542 29.8224 19.1928 30.1222 18.8803 30.3693C18.5678 30.6136 18.217 30.7997 17.8278 30.9276C17.4414 31.0554 17.0281 31.1193 16.5877 31.1193C15.8434 31.1193 15.1815 30.9375 14.6019 30.5739C14.0224 30.2102 13.5664 29.6932 13.234 29.0227C12.9016 28.3523 12.7354 27.5568 12.7354 26.6364C12.7354 25.7159 12.9016 24.9205 13.234 24.25C13.5664 23.5795 14.0224 23.0625 14.6019 22.6989C15.1815 22.3352 15.8434 22.1534 16.5877 22.1534C17.0281 22.1534 17.4414 22.2173 17.8278 22.3452C18.217 22.473 18.5678 22.6605 18.8803 22.9077C19.1928 23.152 19.4542 23.4503 19.6644 23.8026C19.8746 24.152 20.0195 24.5511 20.0991 25ZM23.5966 31.1534C23.1818 31.1534 22.8054 31.0753 22.4673 30.919C22.1293 30.7599 21.8608 30.5312 21.6619 30.233C21.4631 29.9318 21.3636 29.5682 21.3636 29.142C21.3636 28.767 21.4375 28.4631 21.5852 28.2301C21.733 27.9943 21.9304 27.8097 22.1776 27.6761C22.4247 27.5426 22.6974 27.4432 22.9957 27.3778C23.2969 27.3097 23.5994 27.2557 23.9034 27.2159C24.3011 27.1648 24.6236 27.1264 24.8707 27.1009C25.1207 27.0724 25.3026 27.0256 25.4162 26.9602C25.5327 26.8949 25.5909 26.7812 25.5909 26.6193V26.5852C25.5909 26.1648 25.4759 25.8381 25.2457 25.6051C25.0185 25.3722 24.6733 25.2557 24.2102 25.2557C23.7301 25.2557 23.3537 25.3608 23.081 25.571C22.8082 25.7812 22.6165 26.0057 22.5057 26.2443L21.5511 25.9034C21.7216 25.5057 21.9489 25.196 22.233 24.9744C22.5199 24.75 22.8324 24.5937 23.1705 24.5057C23.5114 24.4148 23.8466 24.3693 24.1761 24.3693C24.3864 24.3693 24.6278 24.3949 24.9006 24.446C25.1761 24.4943 25.4418 24.5952 25.6974 24.7486C25.956 24.902 26.1705 25.1335 26.3409 25.4432C26.5114 25.7528 26.5966 26.1676 26.5966 26.6875V31H25.5909V30.1136H25.5398C25.4716 30.2557 25.358 30.4077 25.1989 30.5696C25.0398 30.7315 24.8281 30.8693 24.5639 30.983C24.2997 31.0966 23.9773 31.1534 23.5966 31.1534ZM23.75 30.25C24.1477 30.25 24.483 30.1719 24.7557 30.0156C25.0313 29.8594 25.2386 29.6577 25.3778 29.4105C25.5199 29.1634 25.5909 28.9034 25.5909 28.6307V27.7102C25.5483 27.7614 25.4545 27.8082 25.3097 27.8509C25.1676 27.8906 25.0028 27.9261 24.8153 27.9574C24.6307 27.9858 24.4503 28.0114 24.2741 28.0341C24.1009 28.054 23.9602 28.071 23.8523 28.0852C23.5909 28.1193 23.3466 28.1747 23.1193 28.2514C22.8949 28.3253 22.7131 28.4375 22.5739 28.5881C22.4375 28.7358 22.3693 28.9375 22.3693 29.1932C22.3693 29.5426 22.4986 29.8068 22.7571 29.9858C23.0185 30.1619 23.3494 30.25 23.75 30.25ZM28.4322 31V24.4545H29.4038V25.4773H29.489C29.6254 25.1278 29.8455 24.8565 30.1495 24.6634C30.4535 24.4673 30.8185 24.3693 31.2447 24.3693C31.6765 24.3693 32.0359 24.4673 32.3228 24.6634C32.6126 24.8565 32.8384 25.1278 33.0004 25.4773H33.0685C33.2362 25.1392 33.4876 24.8707 33.8228 24.6719C34.158 24.4702 34.56 24.3693 35.0288 24.3693C35.614 24.3693 36.0927 24.5526 36.4648 24.919C36.837 25.2827 37.0231 25.8494 37.0231 26.6193V31H36.0174V26.6193C36.0174 26.1364 35.8853 25.7912 35.6211 25.5838C35.3569 25.3764 35.0458 25.2727 34.6879 25.2727C34.2276 25.2727 33.8711 25.4119 33.6183 25.6903C33.3654 25.9659 33.239 26.3153 33.239 26.7386V31H32.2163V26.517C32.2163 26.1449 32.0955 25.8452 31.854 25.6179C31.6126 25.3878 31.3015 25.2727 30.9208 25.2727C30.6594 25.2727 30.4151 25.3423 30.1879 25.4815C29.9634 25.6207 29.7816 25.8139 29.6424 26.0611C29.506 26.3054 29.4379 26.5881 29.4379 26.9091V31H28.4322ZM38.8619 31V24.4545H39.8675V31H38.8619ZM39.3732 23.3636C39.1772 23.3636 39.0082 23.2969 38.8661 23.1634C38.7269 23.0298 38.6573 22.8693 38.6573 22.6818C38.6573 22.4943 38.7269 22.3338 38.8661 22.2003C39.0082 22.0668 39.1772 22 39.3732 22C39.5692 22 39.7369 22.0668 39.8761 22.2003C40.0181 22.3338 40.0891 22.4943 40.0891 22.6818C40.0891 22.8693 40.0181 23.0298 39.8761 23.1634C39.7369 23.2969 39.5692 23.3636 39.3732 23.3636ZM46.3459 25.9205L45.4425 26.1761C45.3857 26.0256 45.3018 25.8793 45.1911 25.7372C45.0831 25.5923 44.9354 25.473 44.7479 25.3793C44.5604 25.2855 44.3203 25.2386 44.0277 25.2386C43.6271 25.2386 43.2933 25.331 43.0263 25.5156C42.7621 25.6974 42.63 25.929 42.63 26.2102C42.63 26.4602 42.7209 26.6577 42.9027 26.8026C43.0845 26.9474 43.3686 27.0682 43.755 27.1648L44.7266 27.4034C45.3118 27.5455 45.7479 27.7628 46.0348 28.0554C46.3217 28.3452 46.4652 28.7187 46.4652 29.1761C46.4652 29.5511 46.3572 29.8864 46.1413 30.1818C45.9283 30.4773 45.63 30.7102 45.2464 30.8807C44.8629 31.0511 44.4169 31.1364 43.9084 31.1364C43.2408 31.1364 42.6882 30.9915 42.2507 30.7017C41.8132 30.4119 41.5362 29.9886 41.4197 29.4318L42.3743 29.1932C42.4652 29.5455 42.6371 29.8097 42.8899 29.9858C43.1456 30.1619 43.4794 30.25 43.8913 30.25C44.3601 30.25 44.7322 30.1506 45.0078 29.9517C45.2862 29.75 45.4254 29.5085 45.4254 29.2273C45.4254 29 45.3459 28.8097 45.1868 28.6562C45.0277 28.5 44.7834 28.3835 44.4538 28.3068L43.3629 28.0511C42.7635 27.9091 42.3232 27.6889 42.0419 27.3906C41.7635 27.0895 41.6243 26.7131 41.6243 26.2614C41.6243 25.892 41.728 25.5653 41.9354 25.2812C42.1456 24.9972 42.4311 24.7741 42.7919 24.6122C43.1555 24.4503 43.5675 24.3693 44.0277 24.3693C44.6754 24.3693 45.1839 24.5114 45.5533 24.7955C45.9254 25.0795 46.1896 25.4545 46.3459 25.9205ZM49.9052 31.1534C49.4904 31.1534 49.114 31.0753 48.7759 30.919C48.4379 30.7599 48.1694 30.5312 47.9705 30.233C47.7717 29.9318 47.6722 29.5682 47.6722 29.142C47.6722 28.767 47.7461 28.4631 47.8938 28.2301C48.0415 27.9943 48.239 27.8097 48.4862 27.6761C48.7333 27.5426 49.006 27.4432 49.3043 27.3778C49.6055 27.3097 49.908 27.2557 50.212 27.2159C50.6097 27.1648 50.9322 27.1264 51.1793 27.1009C51.4293 27.0724 51.6112 27.0256 51.7248 26.9602C51.8413 26.8949 51.8995 26.7812 51.8995 26.6193V26.5852C51.8995 26.1648 51.7844 25.8381 51.5543 25.6051C51.3271 25.3722 50.9819 25.2557 50.5188 25.2557C50.0387 25.2557 49.6623 25.3608 49.3896 25.571C49.1168 25.7812 48.9251 26.0057 48.8143 26.2443L47.8597 25.9034C48.0302 25.5057 48.2575 25.196 48.5415 24.9744C48.8285 24.75 49.141 24.5937 49.479 24.5057C49.82 24.4148 50.1552 24.3693 50.4847 24.3693C50.695 24.3693 50.9364 24.3949 51.2092 24.446C51.4847 24.4943 51.7504 24.5952 52.006 24.7486C52.2646 24.902 52.479 25.1335 52.6495 25.4432C52.82 25.7528 52.9052 26.1676 52.9052 26.6875V31H51.8995V30.1136H51.8484C51.7802 30.2557 51.6665 30.4077 51.5075 30.5696C51.3484 30.7315 51.1367 30.8693 50.8725 30.983C50.6083 31.0966 50.2859 31.1534 49.9052 31.1534ZM50.0586 30.25C50.4563 30.25 50.7915 30.1719 51.0643 30.0156C51.3398 29.8594 51.5472 29.6577 51.6864 29.4105C51.8285 29.1634 51.8995 28.9034 51.8995 28.6307V27.7102C51.8569 27.7614 51.7631 27.8082 51.6183 27.8509C51.4762 27.8906 51.3114 27.9261 51.1239 27.9574C50.9393 27.9858 50.7589 28.0114 50.5827 28.0341C50.4094 28.054 50.2688 28.071 50.1609 28.0852C49.8995 28.1193 49.6552 28.1747 49.4279 28.2514C49.2035 28.3253 49.0217 28.4375 48.8825 28.5881C48.7461 28.7358 48.6779 28.9375 48.6779 29.1932C48.6779 29.5426 48.8072 29.8068 49.0657 29.9858C49.3271 30.1619 49.658 30.25 50.0586 30.25ZM54.7408 31V24.4545H55.7124V25.4432H55.7805C55.8999 25.1193 56.1158 24.8565 56.4283 24.6548C56.7408 24.4531 57.093 24.3523 57.4851 24.3523C57.5589 24.3523 57.6513 24.3537 57.7621 24.3565C57.8729 24.3594 57.9567 24.3636 58.0135 24.3693V25.392C57.9794 25.3835 57.9013 25.3707 57.7791 25.3537C57.6598 25.3338 57.5334 25.3239 57.3999 25.3239C57.0817 25.3239 56.7976 25.3906 56.5476 25.5241C56.3004 25.6548 56.1044 25.8366 55.9595 26.0696C55.8175 26.2997 55.7464 26.5625 55.7464 26.858V31H54.7408ZM59.2056 31V24.4545H60.2113V31H59.2056ZM59.717 23.3636C59.521 23.3636 59.3519 23.2969 59.2099 23.1634C59.0707 23.0298 59.0011 22.8693 59.0011 22.6818C59.0011 22.4943 59.0707 22.3338 59.2099 22.2003C59.3519 22.0668 59.521 22 59.717 22C59.913 22 60.0806 22.0668 60.2198 22.2003C60.3619 22.3338 60.4329 22.4943 60.4329 22.6818C60.4329 22.8693 60.3619 23.0298 60.2198 23.1634C60.0806 23.2969 59.913 23.3636 59.717 23.3636ZM63.9794 31.1534C63.5646 31.1534 63.1882 31.0753 62.8501 30.919C62.5121 30.7599 62.2436 30.5312 62.0447 30.233C61.8459 29.9318 61.7464 29.5682 61.7464 29.142C61.7464 28.767 61.8203 28.4631 61.968 28.2301C62.1158 27.9943 62.3132 27.8097 62.5604 27.6761C62.8075 27.5426 63.0803 27.4432 63.3786 27.3778C63.6797 27.3097 63.9822 27.2557 64.2862 27.2159C64.6839 27.1648 65.0064 27.1264 65.2536 27.1009C65.5036 27.0724 65.6854 27.0256 65.799 26.9602C65.9155 26.8949 65.9737 26.7812 65.9737 26.6193V26.5852C65.9737 26.1648 65.8587 25.8381 65.6286 25.6051C65.4013 25.3722 65.0561 25.2557 64.593 25.2557C64.1129 25.2557 63.7365 25.3608 63.4638 25.571C63.1911 25.7812 62.9993 26.0057 62.8885 26.2443L61.9339 25.9034C62.1044 25.5057 62.3317 25.196 62.6158 24.9744C62.9027 24.75 63.2152 24.5937 63.5533 24.5057C63.8942 24.4148 64.2294 24.3693 64.5589 24.3693C64.7692 24.3693 65.0107 24.3949 65.2834 24.446C65.5589 24.4943 65.8246 24.5952 66.0803 24.7486C66.3388 24.902 66.5533 25.1335 66.7237 25.4432C66.8942 25.7528 66.9794 26.1676 66.9794 26.6875V31H65.9737V30.1136H65.9226C65.8544 30.2557 65.7408 30.4077 65.5817 30.5696C65.4226 30.7315 65.2109 30.8693 64.9467 30.983C64.6825 31.0966 64.3601 31.1534 63.9794 31.1534ZM64.1328 30.25C64.5305 30.25 64.8658 30.1719 65.1385 30.0156C65.4141 29.8594 65.6214 29.6577 65.7607 29.4105C65.9027 29.1634 65.9737 28.9034 65.9737 28.6307V27.7102C65.9311 27.7614 65.8374 27.8082 65.6925 27.8509C65.5504 27.8906 65.3857 27.9261 65.1982 27.9574C65.0135 27.9858 64.8331 28.0114 64.657 28.0341C64.4837 28.054 64.343 28.071 64.2351 28.0852C63.9737 28.1193 63.7294 28.1747 63.5021 28.2514C63.2777 28.3253 63.0959 28.4375 62.9567 28.5881C62.8203 28.7358 62.7521 28.9375 62.7521 29.1932C62.7521 29.5426 62.8814 29.8068 63.1399 29.9858C63.4013 30.1619 63.7322 30.25 64.1328 30.25ZM74.6616 31.1193C74.0877 31.1193 73.5934 31.0142 73.1786 30.804C72.7638 30.5937 72.4442 30.3054 72.2198 29.9389C71.9954 29.5724 71.8832 29.1534 71.8832 28.6818C71.8832 28.3182 71.9599 27.9957 72.1133 27.7145C72.2695 27.4304 72.484 27.1676 72.7567 26.9261C73.0323 26.6818 73.3491 26.4375 73.707 26.1932L74.9684 25.2557C75.2156 25.0937 75.413 24.9205 75.5607 24.7358C75.7113 24.5511 75.7866 24.3097 75.7866 24.0114C75.7866 23.7898 75.6886 23.5753 75.4925 23.3679C75.2994 23.1605 75.0451 23.0568 74.7298 23.0568C74.5082 23.0568 74.3121 23.1136 74.1417 23.2273C73.9741 23.3381 73.842 23.4801 73.7454 23.6534C73.6516 23.8239 73.6048 24 73.6048 24.1818C73.6048 24.3864 73.6602 24.5938 73.771 24.804C73.8846 25.0114 74.0281 25.2244 74.2013 25.4432C74.3775 25.6591 74.5593 25.8807 74.7468 26.108L78.7525 31H77.5423L74.2354 27.0114C73.9286 26.642 73.6502 26.3068 73.4002 26.0057C73.1502 25.7045 72.9513 25.4077 72.8036 25.1151C72.6559 24.8224 72.582 24.5057 72.582 24.1648C72.582 23.7727 72.6687 23.429 72.842 23.1335C73.0181 22.8352 73.2638 22.6037 73.5792 22.4389C73.8974 22.2713 74.2695 22.1875 74.6957 22.1875C75.1332 22.1875 75.5096 22.2727 75.8249 22.4432C76.1403 22.6108 76.3832 22.8338 76.5536 23.1122C76.7241 23.3878 76.8093 23.6875 76.8093 24.0114C76.8093 24.429 76.7056 24.7912 76.4982 25.098C76.2908 25.4048 76.0082 25.6903 75.6502 25.9545L73.9116 27.25C73.5195 27.5398 73.2539 27.821 73.1147 28.0938C72.9755 28.3665 72.9059 28.5625 72.9059 28.6818C72.9059 28.9545 72.9769 29.2088 73.119 29.4446C73.261 29.6804 73.4613 29.8707 73.7198 30.0156C73.9783 30.1605 74.2809 30.233 74.6275 30.233C74.957 30.233 75.2781 30.1634 75.5906 30.0241C75.9031 29.8821 76.1857 29.6776 76.4386 29.4105C76.6942 29.1435 76.896 28.8224 77.0437 28.4474C77.1942 28.0724 77.2695 27.6506 77.2695 27.1818H78.2411C78.2411 27.7614 78.1744 28.2344 78.0408 28.6009C77.9073 28.9673 77.7567 29.2543 77.5891 29.4616C77.4215 29.669 77.2866 29.8239 77.1843 29.9261C77.1502 29.9687 77.119 30.0114 77.0906 30.054C77.0621 30.0966 77.0309 30.1392 76.9968 30.1818C76.7156 30.4972 76.3604 30.733 75.9315 30.8892C75.5025 31.0426 75.0792 31.1193 74.6616 31.1193ZM83.7351 31H82.6271L85.8317 22.2727H86.9226L90.1271 31H89.0192L86.4112 23.6534H86.343L83.7351 31ZM84.1442 27.5909H88.6101V28.5284H84.1442V27.5909ZM92.3558 22.2727V31H91.3501V22.2727H92.3558ZM97.1126 24.4545V25.3068H93.5842V24.4545H97.1126ZM94.641 31V23.5511C94.641 23.1761 94.729 22.8636 94.9052 22.6136C95.0813 22.3636 95.31 22.1761 95.5913 22.0511C95.8725 21.9261 96.1694 21.8636 96.4819 21.8636C96.729 21.8636 96.9308 21.8835 97.087 21.9233C97.2433 21.9631 97.3597 22 97.4364 22.0341L97.1467 22.9034C97.0955 22.8864 97.0245 22.8651 96.9336 22.8395C96.8455 22.8139 96.729 22.8011 96.5842 22.8011C96.2518 22.8011 96.0117 22.8849 95.864 23.0526C95.7191 23.2202 95.6467 23.4659 95.6467 23.7898V31H94.641ZM100.261 31.1534C99.8459 31.1534 99.4695 31.0753 99.1314 30.919C98.7933 30.7599 98.5249 30.5312 98.326 30.233C98.1271 29.9318 98.0277 29.5682 98.0277 29.142C98.0277 28.767 98.1016 28.4631 98.2493 28.2301C98.397 27.9943 98.5945 27.8097 98.8416 27.6761C99.0888 27.5426 99.3615 27.4432 99.6598 27.3778C99.9609 27.3097 100.263 27.2557 100.567 27.2159C100.965 27.1648 101.288 27.1264 101.535 27.1009C101.785 27.0724 101.967 27.0256 102.08 26.9602C102.197 26.8949 102.255 26.7812 102.255 26.6193V26.5852C102.255 26.1648 102.14 25.8381 101.91 25.6051C101.683 25.3722 101.337 25.2557 100.874 25.2557C100.394 25.2557 100.018 25.3608 99.745 25.571C99.4723 25.7812 99.2805 26.0057 99.1697 26.2443L98.2152 25.9034C98.3857 25.5057 98.6129 25.196 98.897 24.9744C99.1839 24.75 99.4964 24.5937 99.8345 24.5057C100.175 24.4148 100.511 24.3693 100.84 24.3693C101.05 24.3693 101.292 24.3949 101.565 24.446C101.84 24.4943 102.106 24.5952 102.362 24.7486C102.62 24.902 102.835 25.1335 103.005 25.4432C103.175 25.7528 103.261 26.1676 103.261 26.6875V31H102.255V30.1136H102.204C102.136 30.2557 102.022 30.4077 101.863 30.5696C101.704 30.7315 101.492 30.8693 101.228 30.983C100.964 31.0966 100.641 31.1534 100.261 31.1534ZM100.414 30.25C100.812 30.25 101.147 30.1719 101.42 30.0156C101.695 29.8594 101.903 29.6577 102.042 29.4105C102.184 29.1634 102.255 28.9034 102.255 28.6307V27.7102C102.212 27.7614 102.119 27.8082 101.974 27.8509C101.832 27.8906 101.667 27.9261 101.479 27.9574C101.295 27.9858 101.114 28.0114 100.938 28.0341C100.765 28.054 100.624 28.071 100.516 28.0852C100.255 28.1193 100.011 28.1747 99.7834 28.2514C99.5589 28.3253 99.3771 28.4375 99.2379 28.5881C99.1016 28.7358 99.0334 28.9375 99.0334 29.1932C99.0334 29.5426 99.1626 29.8068 99.4212 29.9858C99.6825 30.1619 100.013 30.25 100.414 30.25ZM105.096 31V24.4545H106.102V31H105.096ZM105.608 23.3636C105.412 23.3636 105.243 23.2969 105.1 23.1634C104.961 23.0298 104.892 22.8693 104.892 22.6818C104.892 22.4943 104.961 22.3338 105.1 22.2003C105.243 22.0668 105.412 22 105.608 22C105.804 22 105.971 22.0668 106.11 22.2003C106.252 22.3338 106.324 22.4943 106.324 22.6818C106.324 22.8693 106.252 23.0298 106.11 23.1634C105.971 23.2969 105.804 23.3636 105.608 23.3636ZM109.87 31.1534C109.455 31.1534 109.079 31.0753 108.741 30.919C108.403 30.7599 108.134 30.5312 107.935 30.233C107.737 29.9318 107.637 29.5682 107.637 29.142C107.637 28.767 107.711 28.4631 107.859 28.2301C108.006 27.9943 108.204 27.8097 108.451 27.6761C108.698 27.5426 108.971 27.4432 109.269 27.3778C109.57 27.3097 109.873 27.2557 110.177 27.2159C110.575 27.1648 110.897 27.1264 111.144 27.1009C111.394 27.0724 111.576 27.0256 111.69 26.9602C111.806 26.8949 111.864 26.7812 111.864 26.6193V26.5852C111.864 26.1648 111.749 25.8381 111.519 25.6051C111.292 25.3722 110.947 25.2557 110.484 25.2557C110.004 25.2557 109.627 25.3608 109.354 25.571C109.082 25.7812 108.89 26.0057 108.779 26.2443L107.825 25.9034C107.995 25.5057 108.222 25.196 108.506 24.9744C108.793 24.75 109.106 24.5937 109.444 24.5057C109.785 24.4148 110.12 24.3693 110.45 24.3693C110.66 24.3693 110.901 24.3949 111.174 24.446C111.45 24.4943 111.715 24.5952 111.971 24.7486C112.229 24.902 112.444 25.1335 112.614 25.4432C112.785 25.7528 112.87 26.1676 112.87 26.6875V31H111.864V30.1136H111.813C111.745 30.2557 111.631 30.4077 111.472 30.5696C111.313 30.7315 111.102 30.8693 110.837 30.983C110.573 31.0966 110.251 31.1534 109.87 31.1534ZM110.023 30.25C110.421 30.25 110.756 30.1719 111.029 30.0156C111.305 29.8594 111.512 29.6577 111.651 29.4105C111.793 29.1634 111.864 28.9034 111.864 28.6307V27.7102C111.822 27.7614 111.728 27.8082 111.583 27.8509C111.441 27.8906 111.276 27.9261 111.089 27.9574C110.904 27.9858 110.724 28.0114 110.548 28.0341C110.374 28.054 110.234 28.071 110.126 28.0852C109.864 28.1193 109.62 28.1747 109.393 28.2514C109.168 28.3253 108.987 28.4375 108.847 28.5881C108.711 28.7358 108.643 28.9375 108.643 29.1932C108.643 29.5426 108.772 29.8068 109.031 29.9858C109.292 30.1619 109.623 30.25 110.023 30.25ZM117.552 24.4545V25.3068H114.16V24.4545H117.552ZM115.149 22.8864H116.154V29.125C116.154 29.4091 116.196 29.6222 116.278 29.7642C116.363 29.9034 116.471 29.9972 116.602 30.0455C116.735 30.0909 116.876 30.1136 117.024 30.1136C117.135 30.1136 117.225 30.108 117.297 30.0966C117.368 30.0824 117.424 30.071 117.467 30.0625L117.672 30.9659C117.603 30.9915 117.508 31.017 117.386 31.0426C117.264 31.071 117.109 31.0852 116.922 31.0852C116.637 31.0852 116.359 31.0241 116.086 30.902C115.816 30.7798 115.592 30.5938 115.413 30.3438C115.237 30.0938 115.149 29.7784 115.149 29.3977V22.8864ZM120.991 31.1534C120.576 31.1534 120.2 31.0753 119.862 30.919C119.524 30.7599 119.255 30.5312 119.056 30.233C118.858 29.9318 118.758 29.5682 118.758 29.142C118.758 28.767 118.832 28.4631 118.98 28.2301C119.127 27.9943 119.325 27.8097 119.572 27.6761C119.819 27.5426 120.092 27.4432 120.39 27.3778C120.691 27.3097 120.994 27.2557 121.298 27.2159C121.696 27.1648 122.018 27.1264 122.265 27.1009C122.515 27.0724 122.697 27.0256 122.811 26.9602C122.927 26.8949 122.985 26.7812 122.985 26.6193V26.5852C122.985 26.1648 122.87 25.8381 122.64 25.6051C122.413 25.3722 122.068 25.2557 121.605 25.2557C121.125 25.2557 120.748 25.3608 120.475 25.571C120.203 25.7812 120.011 26.0057 119.9 26.2443L118.946 25.9034C119.116 25.5057 119.343 25.196 119.627 24.9744C119.914 24.75 120.227 24.5937 120.565 24.5057C120.906 24.4148 121.241 24.3693 121.571 24.3693C121.781 24.3693 122.022 24.3949 122.295 24.446C122.571 24.4943 122.836 24.5952 123.092 24.7486C123.35 24.902 123.565 25.1335 123.735 25.4432C123.906 25.7528 123.991 26.1676 123.991 26.6875V31H122.985V30.1136H122.934C122.866 30.2557 122.752 30.4077 122.593 30.5696C122.434 30.7315 122.223 30.8693 121.958 30.983C121.694 31.0966 121.372 31.1534 120.991 31.1534ZM121.145 30.25C121.542 30.25 121.877 30.1719 122.15 30.0156C122.426 29.8594 122.633 29.6577 122.772 29.4105C122.914 29.1634 122.985 28.9034 122.985 28.6307V27.7102C122.943 27.7614 122.849 27.8082 122.704 27.8509C122.562 27.8906 122.397 27.9261 122.21 27.9574C122.025 27.9858 121.845 28.0114 121.669 28.0341C121.495 28.054 121.355 28.071 121.247 28.0852C120.985 28.1193 120.741 28.1747 120.514 28.2514C120.289 28.3253 120.108 28.4375 119.968 28.5881C119.832 28.7358 119.764 28.9375 119.764 29.1932C119.764 29.5426 119.893 29.8068 120.152 29.9858C120.413 30.1619 120.744 30.25 121.145 30.25ZM125.827 31V24.4545H126.798V25.4432H126.866C126.986 25.1193 127.202 24.8565 127.514 24.6548C127.827 24.4531 128.179 24.3523 128.571 24.3523C128.645 24.3523 128.737 24.3537 128.848 24.3565C128.959 24.3594 129.043 24.3636 129.099 24.3693V25.392C129.065 25.3835 128.987 25.3707 128.865 25.3537C128.746 25.3338 128.619 25.3239 128.486 25.3239C128.168 25.3239 127.884 25.3906 127.634 25.5241C127.386 25.6548 127.19 25.8366 127.045 26.0696C126.903 26.2997 126.832 26.5625 126.832 26.858V31H125.827ZM130.292 31V24.4545H131.297V31H130.292ZM130.803 23.3636C130.607 23.3636 130.438 23.2969 130.296 23.1634C130.157 23.0298 130.087 22.8693 130.087 22.6818C130.087 22.4943 130.157 22.3338 130.296 22.2003C130.438 22.0668 130.607 22 130.803 22C130.999 22 131.167 22.0668 131.306 22.2003C131.448 22.3338 131.519 22.4943 131.519 22.6818C131.519 22.8693 131.448 23.0298 131.306 23.1634C131.167 23.2969 130.999 23.3636 130.803 23.3636ZM135.065 31.1534C134.651 31.1534 134.274 31.0753 133.936 30.919C133.598 30.7599 133.33 30.5312 133.131 30.233C132.932 29.9318 132.832 29.5682 132.832 29.142C132.832 28.767 132.906 28.4631 133.054 28.2301C133.202 27.9943 133.399 27.8097 133.646 27.6761C133.893 27.5426 134.166 27.4432 134.464 27.3778C134.766 27.3097 135.068 27.2557 135.372 27.2159C135.77 27.1648 136.092 27.1264 136.339 27.1009C136.589 27.0724 136.771 27.0256 136.885 26.9602C137.001 26.8949 137.06 26.7812 137.06 26.6193V26.5852C137.06 26.1648 136.945 25.8381 136.714 25.6051C136.487 25.3722 136.142 25.2557 135.679 25.2557C135.199 25.2557 134.822 25.3608 134.55 25.571C134.277 25.7812 134.085 26.0057 133.974 26.2443L133.02 25.9034C133.19 25.5057 133.418 25.196 133.702 24.9744C133.989 24.75 134.301 24.5937 134.639 24.5057C134.98 24.4148 135.315 24.3693 135.645 24.3693C135.855 24.3693 136.097 24.3949 136.369 24.446C136.645 24.4943 136.911 24.5952 137.166 24.7486C137.425 24.902 137.639 25.1335 137.81 25.4432C137.98 25.7528 138.065 26.1676 138.065 26.6875V31H137.06V30.1136H137.009C136.94 30.2557 136.827 30.4077 136.668 30.5696C136.509 30.7315 136.297 30.8693 136.033 30.983C135.768 31.0966 135.446 31.1534 135.065 31.1534ZM135.219 30.25C135.616 30.25 135.952 30.1719 136.224 30.0156C136.5 29.8594 136.707 29.6577 136.847 29.4105C136.989 29.1634 137.06 28.9034 137.06 28.6307V27.7102C137.017 27.7614 136.923 27.8082 136.778 27.8509C136.636 27.8906 136.472 27.9261 136.284 27.9574C136.099 27.9858 135.919 28.0114 135.743 28.0341C135.57 28.054 135.429 28.071 135.321 28.0852C135.06 28.1193 134.815 28.1747 134.588 28.2514C134.364 28.3253 134.182 28.4375 134.043 28.5881C133.906 28.7358 133.838 28.9375 133.838 29.1932C133.838 29.5426 133.967 29.8068 134.226 29.9858C134.487 30.1619 134.818 30.25 135.219 30.25Z" fill="black"/>
</svg>
